<svg width="282" height="275" viewBox="0 0 282 275" fill="none" xmlns="http://www.w3.org/2000/svg">
<rect x="121.321" y="124.93" width="31.832" height="0.872103" rx="0.436051" fill="#5C5A9B"/>
<g filter="url(#filter0_i_799_690)">
<path d="M216.197 123.113L146.432 85.5285C142.742 83.4905 138.272 83.4905 134.583 85.5285L64.817 123.113C60.9374 125.255 58.5289 129.344 58.5289 133.785V230.454L130.87 188.552C136.834 185.098 144.18 185.098 150.144 188.552L222.485 230.454V133.785C222.485 129.344 220.077 125.255 216.197 123.116V123.113Z" fill="#5E67BD"/>
</g>
<g clip-path="url(#clip0_799_690)">
<g filter="url(#filter1_i_799_690)">
<path d="M104.298 196.085C122.654 199.858 140.593 188.037 144.367 169.681C148.14 151.326 136.318 133.387 117.963 129.613C99.607 125.84 81.6679 137.661 77.8946 156.017C74.1213 174.373 85.9427 192.312 104.298 196.085Z" fill="#3C3D3D"/>
</g>
<path d="M113.455 151.543L102.917 149.377C102.682 149.328 102.451 149.48 102.402 149.716L101.13 155.904C101.082 156.14 101.234 156.371 101.47 156.419L104.477 157.037C104.712 157.086 104.943 156.934 104.991 156.698L105.458 154.429C105.506 154.193 105.737 154.041 105.973 154.09L110.114 154.941C110.35 154.989 110.502 155.22 110.453 155.456L107.278 170.903C107.229 171.139 106.999 171.291 106.763 171.243L104.723 170.823C104.487 170.775 104.257 170.927 104.208 171.163L103.52 174.511C103.471 174.747 103.623 174.978 103.859 175.026L113.003 176.906C113.238 176.954 113.469 176.802 113.518 176.566L114.206 173.218C114.254 172.982 114.102 172.752 113.867 172.703L111.827 172.284C111.591 172.235 111.439 172.005 111.487 171.769L114.663 156.321C114.711 156.085 114.942 155.933 115.178 155.982L119.319 156.833C119.555 156.882 119.707 157.112 119.658 157.348L119.192 159.617C119.144 159.853 119.296 160.083 119.531 160.132L122.538 160.75C122.774 160.798 123.005 160.646 123.053 160.411L124.325 154.223C124.374 153.987 124.222 153.756 123.986 153.708L113.448 151.542L113.455 151.543Z" fill="#F4F4F3"/>
</g>
<rect width="88.0301" height="35.1071" rx="17.5535" transform="matrix(0.95641 -0.292028 0.292031 0.956409 120.451 164.658)" fill="#C3CD3D"/>
<rect opacity="0.8" x="0.275282" y="0.146496" width="83.6721" height="30.6922" rx="15.3461" transform="matrix(0.95641 -0.292028 0.292031 0.956409 122.709 166.011)" fill="#C3CD3D" stroke="#777E1C" stroke-width="0.441002" stroke-dasharray="1.32 1.32"/>
<g opacity="0.7" filter="url(#filter2_i_799_690)">
<path d="M144.622 179.142L142.556 172.979L140.119 171.915L148.033 169.262L146.064 171.803L148.186 178.132L151.713 176.95L153.645 173.681L154.946 177.561L143.319 181.459L144.622 179.142Z" fill="#B5BD44"/>
<path d="M154.351 172.452C154.146 171.84 154.05 171.26 154.064 170.713C154.083 170.164 154.182 169.651 154.364 169.176C154.545 168.701 154.798 168.263 155.123 167.863C155.446 167.458 155.811 167.097 156.217 166.778C156.627 166.453 157.065 166.17 157.532 165.93C157.998 165.685 158.466 165.484 158.936 165.326C159.451 165.153 159.977 165.022 160.514 164.93C161.054 164.833 161.583 164.792 162.101 164.806C162.622 164.814 163.127 164.884 163.615 165.016C164.102 165.144 164.555 165.345 164.972 165.62C165.395 165.893 165.77 166.246 166.097 166.679C166.43 167.11 166.698 167.632 166.904 168.245C167.106 168.848 167.202 169.421 167.191 169.962C167.18 170.504 167.086 171.012 166.909 171.486C166.732 171.959 166.485 172.398 166.166 172.801C165.851 173.203 165.49 173.568 165.082 173.897C164.679 174.225 164.237 174.513 163.758 174.763C163.284 175.011 162.8 175.217 162.308 175.382C161.815 175.548 161.305 175.676 160.779 175.769C160.252 175.862 159.728 175.904 159.207 175.896C158.691 175.887 158.185 175.819 157.689 175.694C157.197 175.568 156.738 175.369 156.311 175.097C155.889 174.824 155.51 174.473 155.173 174.043C154.835 173.608 154.561 173.078 154.351 172.452ZM158.265 171.141C158.44 171.664 158.661 172.131 158.926 172.54C159.191 172.945 159.482 173.277 159.801 173.535C160.119 173.794 160.454 173.968 160.805 174.058C161.156 174.147 161.504 174.134 161.85 174.018C162.196 173.902 162.482 173.7 162.706 173.413C162.93 173.125 163.092 172.782 163.19 172.384C163.293 171.985 163.328 171.543 163.295 171.061C163.264 170.573 163.163 170.071 162.99 169.557C162.816 169.037 162.598 168.57 162.335 168.155C162.071 167.735 161.779 167.394 161.459 167.131C161.142 166.862 160.805 166.681 160.448 166.589C160.09 166.492 159.731 166.503 159.371 166.624C159.025 166.74 158.741 166.944 158.518 167.236C158.293 167.523 158.133 167.87 158.038 168.278C157.941 168.68 157.911 169.129 157.949 169.625C157.986 170.116 158.091 170.622 158.265 171.141Z" fill="#B5BD44"/>
<path d="M168.164 168.029C167.971 167.453 167.875 166.895 167.877 166.356C167.879 165.818 167.962 165.306 168.125 164.822C168.289 164.338 168.524 163.884 168.831 163.46C169.143 163.035 169.508 162.644 169.926 162.286C170.348 161.927 170.817 161.61 171.332 161.334C171.845 161.053 172.389 160.816 172.966 160.623C173.312 160.507 173.666 160.413 174.027 160.341C174.392 160.268 174.753 160.217 175.108 160.186C175.463 160.156 175.808 160.147 176.142 160.158C176.481 160.168 176.799 160.197 177.097 160.245L177.384 159.423L178.875 158.924L179.963 162.171L178.273 162.738C177.975 162.468 177.65 162.249 177.297 162.081C176.949 161.911 176.586 161.791 176.207 161.721C175.832 161.649 175.45 161.629 175.061 161.66C174.675 161.686 174.293 161.762 173.916 161.889C173.504 162.027 173.135 162.23 172.81 162.497C172.485 162.764 172.231 163.09 172.05 163.477C171.869 163.863 171.772 164.31 171.759 164.818C171.745 165.321 171.842 165.881 172.048 166.498C172.246 167.088 172.51 167.58 172.839 167.973C173.171 168.36 173.539 168.656 173.944 168.861C174.347 169.062 174.774 169.173 175.225 169.194C175.681 169.214 176.131 169.15 176.574 169.001C176.965 168.87 177.293 168.73 177.559 168.582C177.824 168.429 178.048 168.243 178.231 168.024L177.673 166.36L175.112 165.145L180.456 163.354L182.161 168.439L180.583 168.967L179.994 168.425C179.789 168.681 179.558 168.919 179.3 169.138C179.042 169.353 178.763 169.551 178.462 169.73C178.164 169.914 177.849 170.079 177.518 170.225C177.188 170.375 176.848 170.508 176.497 170.626C175.898 170.827 175.303 170.987 174.711 171.106C174.124 171.224 173.556 171.289 173.007 171.3C172.456 171.307 171.933 171.255 171.437 171.145C170.94 171.03 170.483 170.845 170.066 170.59C169.649 170.33 169.278 169.991 168.955 169.571C168.632 169.151 168.368 168.637 168.164 168.029Z" fill="#B5BD44"/>
<path d="M182.438 163.037C182.232 162.425 182.137 161.845 182.151 161.298C182.169 160.749 182.269 160.236 182.45 159.761C182.631 159.286 182.884 158.848 183.209 158.448C183.533 158.043 183.897 157.682 184.304 157.363C184.713 157.038 185.151 156.755 185.619 156.515C186.084 156.27 186.552 156.069 187.023 155.911C187.538 155.738 188.063 155.606 188.6 155.515C189.14 155.418 189.669 155.377 190.187 155.391C190.708 155.399 191.213 155.469 191.702 155.601C192.189 155.729 192.641 155.93 193.059 156.205C193.481 156.478 193.856 156.831 194.184 157.264C194.516 157.695 194.785 158.217 194.99 158.83C195.192 159.433 195.288 160.006 195.277 160.547C195.266 161.089 195.172 161.597 194.996 162.071C194.819 162.544 194.571 162.983 194.252 163.386C193.937 163.787 193.576 164.153 193.168 164.482C192.765 164.81 192.324 165.098 191.845 165.348C191.37 165.596 190.886 165.802 190.394 165.967C189.901 166.132 189.392 166.261 188.865 166.354C188.339 166.447 187.815 166.489 187.294 166.481C186.777 166.471 186.271 166.404 185.775 166.279C185.284 166.153 184.825 165.954 184.398 165.682C183.976 165.409 183.596 165.058 183.26 164.628C182.921 164.193 182.647 163.663 182.438 163.037ZM186.351 161.726C186.527 162.249 186.747 162.716 187.013 163.125C187.277 163.53 187.568 163.862 187.887 164.12C188.206 164.379 188.54 164.553 188.891 164.643C189.242 164.732 189.591 164.719 189.937 164.603C190.283 164.487 190.568 164.285 190.792 163.998C191.017 163.71 191.178 163.367 191.277 162.969C191.38 162.569 191.414 162.128 191.381 161.646C191.351 161.158 191.249 160.656 191.077 160.142C190.903 159.622 190.684 159.155 190.422 158.74C190.158 158.32 189.865 157.979 189.545 157.716C189.228 157.447 188.891 157.266 188.534 157.174C188.176 157.077 187.817 157.088 187.458 157.209C187.112 157.325 186.827 157.529 186.604 157.821C186.38 158.108 186.22 158.455 186.124 158.862C186.027 159.265 185.998 159.714 186.036 160.21C186.072 160.701 186.177 161.206 186.351 161.726Z" fill="#B5BD44"/>
</g>
<g filter="url(#filter3_b_799_690)">
<path d="M130.942 188.369L58.5096 234.871V241.449C58.5096 242.455 59.2445 243.268 60.1463 243.268H221.033C221.938 243.268 222.669 242.451 222.669 241.449V234.871L150.237 188.369C144.265 184.536 136.91 184.536 130.938 188.369H130.942Z" fill="#6172CC" fill-opacity="0.72" stroke="#9A8DEA" stroke-opacity="0.35" stroke-width="0.441002" stroke-miterlimit="10"/>
<path d="M135.578 186.232C122.548 178.065 80.928 152 73.1724 147.428C63.9539 141.995 58.5096 141.746 58.5096 141.746V234.87L130.942 188.367C132.415 187.42 133.975 186.707 135.578 186.232Z" fill="#6172CC" fill-opacity="0.72" stroke="#9A8DEA" stroke-opacity="0.35" stroke-width="0.441002" stroke-miterlimit="10"/>
<path d="M145.604 186.232C158.633 178.065 200.253 152 208.009 147.428C217.227 141.995 222.672 141.746 222.672 141.746V234.87L150.239 188.367C148.767 187.42 147.207 186.707 145.604 186.232Z" fill="#6172CC" fill-opacity="0.72" stroke="#9A8DEA" stroke-opacity="0.35" stroke-width="0.441002" stroke-miterlimit="10"/>
</g>
<ellipse cx="181.432" cy="242.752" rx="4.14252" ry="4.14249" fill="#E1DDF3"/>
<circle cx="203.369" cy="225.57" r="6.51971" fill="#C3CD3D"/>
<g filter="url(#filter4_d_799_690)">
<circle cx="214.545" cy="193.904" r="13.9708" fill="#9388C1"/>
</g>
<path d="M188.486 124.502C187.99 125.431 185.74 129.321 183.134 129.405C183.06 129.409 183.042 129.5 183.109 129.532C185.5 130.583 186.12 135.031 186.231 136.085C186.236 136.149 186.324 136.166 186.353 136.108C186.85 135.18 189.099 131.29 191.706 131.206C191.78 131.201 191.797 131.11 191.731 131.079C189.339 130.028 188.719 125.579 188.609 124.526C188.603 124.462 188.515 124.445 188.486 124.502Z" fill="#E6F156"/>
<path fill-rule="evenodd" clip-rule="evenodd" d="M214.797 195.901L213.346 198.121C212.747 199.037 212.448 199.494 212.14 199.414C211.833 199.333 211.798 198.787 211.728 197.695L211.228 189.925C211.177 189.138 211.152 188.744 211.392 188.608C211.632 188.472 211.957 188.695 212.607 189.141L219.027 193.546C219.929 194.165 220.381 194.475 220.293 194.78C220.205 195.086 219.658 195.109 218.565 195.155L216.713 195.232L218.706 198.83L216.957 199.799L214.797 195.901Z" fill="#E1DDF3"/>
<defs>
<filter id="filter0_i_799_690" x="58.5289" y="84" width="165.279" height="148.217" filterUnits="userSpaceOnUse" color-interpolation-filters="sRGB">
<feFlood flood-opacity="0" result="BackgroundImageFix"/>
<feBlend mode="normal" in="SourceGraphic" in2="BackgroundImageFix" result="shape"/>
<feColorMatrix in="SourceAlpha" type="matrix" values="0 0 0 0 0 0 0 0 0 0 0 0 0 0 0 0 0 0 127 0" result="hardAlpha"/>
<feOffset dx="1.323" dy="2.20501"/>
<feGaussianBlur stdDeviation="0.882003"/>
<feComposite in2="hardAlpha" operator="arithmetic" k2="-1" k3="1"/>
<feColorMatrix type="matrix" values="0 0 0 0 0 0 0 0 0 0 0 0 0 0 0 0 0 0 0.06 0"/>
<feBlend mode="normal" in2="shape" result="effect1_innerShadow_799_690"/>
</filter>
<filter id="filter1_i_799_690" x="75.429" y="128.912" width="69.6393" height="69.639" filterUnits="userSpaceOnUse" color-interpolation-filters="sRGB">
<feFlood flood-opacity="0" result="BackgroundImageFix"/>
<feBlend mode="normal" in="SourceGraphic" in2="BackgroundImageFix" result="shape"/>
<feColorMatrix in="SourceAlpha" type="matrix" values="0 0 0 0 0 0 0 0 0 0 0 0 0 0 0 0 0 0 127 0" result="hardAlpha"/>
<feOffset dx="-3.52801" dy="1.76401"/>
<feGaussianBlur stdDeviation="0.882003"/>
<feComposite in2="hardAlpha" operator="arithmetic" k2="-1" k3="1"/>
<feColorMatrix type="matrix" values="0 0 0 0 0 0 0 0 0 0 0 0 0 0 0 0 0 0 0.1 0"/>
<feBlend mode="normal" in2="shape" result="effect1_innerShadow_799_690"/>
</filter>
<filter id="filter2_i_799_690" x="140.12" y="155.389" width="55.1584" height="26.5113" filterUnits="userSpaceOnUse" color-interpolation-filters="sRGB">
<feFlood flood-opacity="0" result="BackgroundImageFix"/>
<feBlend mode="normal" in="SourceGraphic" in2="BackgroundImageFix" result="shape"/>
<feColorMatrix in="SourceAlpha" type="matrix" values="0 0 0 0 0 0 0 0 0 0 0 0 0 0 0 0 0 0 127 0" result="hardAlpha"/>
<feOffset dy="0.441001"/>
<feGaussianBlur stdDeviation="0.441001"/>
<feComposite in2="hardAlpha" operator="arithmetic" k2="-1" k3="1"/>
<feColorMatrix type="matrix" values="0 0 0 0 0.570194 0 0 0 0 0.6 0 0 0 0 0.18 0 0 0 1 0"/>
<feBlend mode="normal" in2="shape" result="effect1_innerShadow_799_690"/>
</filter>
<filter id="filter3_b_799_690" x="50.7922" y="134.019" width="179.597" height="116.967" filterUnits="userSpaceOnUse" color-interpolation-filters="sRGB">
<feFlood flood-opacity="0" result="BackgroundImageFix"/>
<feGaussianBlur in="BackgroundImageFix" stdDeviation="3.74851"/>
<feComposite in2="SourceAlpha" operator="in" result="effect1_backgroundBlur_799_690"/>
<feBlend mode="normal" in="SourceGraphic" in2="effect1_backgroundBlur_799_690" result="shape"/>
</filter>
<filter id="filter4_d_799_690" x="200.574" y="179.934" width="39.5567" height="38.2334" filterUnits="userSpaceOnUse" color-interpolation-filters="sRGB">
<feFlood flood-opacity="0" result="BackgroundImageFix"/>
<feColorMatrix in="SourceAlpha" type="matrix" values="0 0 0 0 0 0 0 0 0 0 0 0 0 0 0 0 0 0 127 0" result="hardAlpha"/>
<feOffset dx="6.61502" dy="5.29202"/>
<feGaussianBlur stdDeviation="2.5"/>
<feComposite in2="hardAlpha" operator="out"/>
<feColorMatrix type="matrix" values="0 0 0 0 0.469919 0 0 0 0 0.452812 0 0 0 0 0.575 0 0 0 0.25 0"/>
<feBlend mode="normal" in2="BackgroundImageFix" result="effect1_dropShadow_799_690"/>
<feBlend mode="normal" in="SourceGraphic" in2="effect1_dropShadow_799_690" result="shape"/>
</filter>
<clipPath id="clip0_799_690">
<rect width="67.8618" height="67.8614" fill="white" transform="matrix(0.979519 0.201354 -0.201357 0.979518 84.7268 122.781)"/>
</clipPath>
</defs>
</svg>
