<svg width="282" height="275" viewBox="0 0 282 275" fill="none" xmlns="http://www.w3.org/2000/svg">
<g filter="url(#filter0_i_799_690)">
<path d="M216.197 123.113L146.432 85.5285C142.742 83.4905 138.272 83.4905 134.583 85.5285L64.8171 123.113C60.9375 125.255 58.529 129.344 58.529 133.785V230.454L130.87 188.552C136.834 185.098 144.18 185.098 150.144 188.552L222.485 230.454V133.785C222.485 129.344 220.077 125.255 216.197 123.116V123.113Z" fill="#5E67BD"/>
</g>
<g clip-path="url(#clip0_799_690)">
<g filter="url(#filter1_i_799_690)">
<path d="M104.298 196.085C122.654 199.858 140.593 188.037 144.367 169.681C148.14 151.326 136.318 133.387 117.963 129.613C99.607 125.84 81.6679 137.661 77.8946 156.017C74.1213 174.373 85.9427 192.312 104.298 196.085Z" fill="#3C3D3D"/>
</g>
<path d="M113.455 151.543L102.917 149.377C102.682 149.328 102.451 149.48 102.402 149.716L101.13 155.904C101.082 156.14 101.234 156.371 101.47 156.419L104.477 157.037C104.712 157.086 104.943 156.934 104.991 156.698L105.458 154.429C105.506 154.193 105.737 154.041 105.973 154.09L110.114 154.941C110.35 154.989 110.502 155.22 110.453 155.456L107.278 170.903C107.229 171.139 106.999 171.291 106.763 171.243L104.723 170.823C104.487 170.775 104.257 170.927 104.208 171.163L103.52 174.511C103.471 174.747 103.623 174.978 103.859 175.026L113.003 176.906C113.238 176.954 113.469 176.802 113.518 176.566L114.206 173.218C114.254 172.982 114.102 172.752 113.867 172.703L111.827 172.284C111.591 172.235 111.439 172.005 111.487 171.769L114.663 156.321C114.711 156.085 114.942 155.933 115.178 155.982L119.319 156.833C119.555 156.882 119.707 157.112 119.658 157.348L119.192 159.617C119.143 159.853 119.295 160.083 119.531 160.132L122.538 160.75C122.774 160.798 123.005 160.646 123.053 160.411L124.325 154.223C124.374 153.987 124.222 153.756 123.986 153.708L113.448 151.542L113.455 151.543Z" fill="#F4F4F3"/>
</g>
<path d="M125.577 181.447C122.746 172.175 127.967 162.363 137.239 159.532L187.855 144.077C197.127 141.246 206.939 146.467 209.77 155.739V155.739C212.601 165.011 207.38 174.823 198.108 177.654L147.492 193.109C138.22 195.94 128.408 190.719 125.577 181.447V181.447Z" fill="#C3CD3D"/>
<path opacity="0.8" d="M127.286 180.812C124.776 172.589 129.406 163.889 137.628 161.378L188.299 145.906C196.521 143.396 205.222 148.026 207.733 156.248V156.248C210.243 164.471 205.613 173.172 197.391 175.682L146.72 191.154C138.498 193.665 129.797 189.034 127.286 180.812V180.812Z" fill="#C3CD3D"/>
<path opacity="0.8" fill-rule="evenodd" clip-rule="evenodd" d="M146.066 191.339L145.955 190.912C146.168 190.857 146.38 190.797 146.591 190.732L147.225 190.539L147.354 190.961L146.72 191.154C146.502 191.221 146.284 191.282 146.066 191.339ZM196.757 175.876L196.629 175.454L197.262 175.261C197.474 175.196 197.683 175.127 197.89 175.054L198.037 175.47C197.824 175.545 197.609 175.616 197.391 175.682L196.757 175.876ZM199.297 174.963L199.115 174.561C199.518 174.378 199.91 174.179 200.291 173.964L200.508 174.348C200.116 174.569 199.712 174.774 199.297 174.963ZM201.66 173.63L201.41 173.266C201.775 173.016 202.126 172.751 202.464 172.472L202.745 172.813C202.397 173.099 202.035 173.372 201.66 173.63ZM203.754 171.903L203.445 171.589C203.759 171.28 204.059 170.958 204.344 170.623L204.68 170.91C204.386 171.253 204.078 171.585 203.754 171.903ZM205.515 169.839L205.156 169.583C205.412 169.224 205.651 168.855 205.875 168.476L206.255 168.7C206.025 169.09 205.778 169.47 205.515 169.839ZM206.893 167.501L206.495 167.311C206.684 166.914 206.857 166.509 207.012 166.096L207.424 166.251C207.265 166.676 207.088 167.093 206.893 167.501ZM207.846 164.96L207.421 164.842C207.539 164.419 207.638 163.99 207.719 163.556L208.153 163.637C208.07 164.084 207.967 164.525 207.846 164.96ZM208.343 162.292L207.904 162.25C207.947 161.814 207.97 161.374 207.974 160.932L208.415 160.936C208.411 161.391 208.387 161.843 208.343 162.292ZM208.367 159.579L207.928 159.614C207.893 159.178 207.839 158.742 207.766 158.305L208.201 158.231C208.276 158.681 208.332 159.131 208.367 159.579ZM207.917 156.903C207.861 156.684 207.799 156.466 207.733 156.248C207.666 156.031 207.595 155.815 207.52 155.603L207.105 155.749C207.178 155.956 207.246 156.166 207.311 156.377C207.376 156.589 207.436 156.801 207.49 157.013L207.917 156.903ZM207.013 154.342L206.612 154.525C206.429 154.121 206.229 153.729 206.014 153.348L206.399 153.132C206.62 153.523 206.825 153.927 207.013 154.342ZM205.68 151.979L205.317 152.229C205.066 151.865 204.801 151.513 204.523 151.175L204.863 150.894C205.15 151.242 205.423 151.604 205.68 151.979ZM203.954 149.885L203.639 150.195C203.33 149.88 203.008 149.58 202.674 149.295L202.96 148.96C203.304 149.253 203.636 149.562 203.954 149.885ZM201.889 148.124L201.634 148.483C201.275 148.228 200.905 147.988 200.526 147.765L200.75 147.385C201.14 147.614 201.52 147.861 201.889 148.124ZM199.551 146.746L199.361 147.144C198.964 146.955 198.559 146.782 198.147 146.628L198.302 146.215C198.726 146.374 199.143 146.551 199.551 146.746ZM197.011 145.794L196.892 146.218C196.469 146.1 196.04 146.001 195.607 145.92L195.688 145.486C196.134 145.57 196.575 145.672 197.011 145.794ZM194.343 145.296L194.3 145.735C193.864 145.693 193.424 145.669 192.983 145.665L192.986 145.224C193.441 145.228 193.894 145.252 194.343 145.296ZM191.629 145.272L191.664 145.712C191.229 145.746 190.792 145.8 190.355 145.873L190.282 145.438C190.732 145.363 191.181 145.307 191.629 145.272ZM138.262 161.185L137.628 161.378C137.411 161.444 137.195 161.515 136.983 161.59L137.129 162.006C137.336 161.933 137.545 161.864 137.757 161.8L138.391 161.606L138.262 161.185ZM135.722 162.098L135.905 162.499C135.501 162.682 135.109 162.882 134.728 163.096L134.511 162.712C134.903 162.491 135.307 162.286 135.722 162.098ZM133.359 163.431L133.609 163.794C133.245 164.044 132.893 164.309 132.555 164.588L132.274 164.248C132.622 163.961 132.984 163.688 133.359 163.431ZM131.265 165.157L131.574 165.471C131.26 165.781 130.96 166.103 130.675 166.437L130.34 166.151C130.633 165.807 130.942 165.475 131.265 165.157ZM129.504 167.221L129.863 167.477C129.607 167.836 129.368 168.205 129.144 168.584L128.764 168.36C128.994 167.97 129.241 167.59 129.504 167.221ZM128.126 169.559L128.524 169.749C128.335 170.146 128.162 170.552 128.008 170.964L127.595 170.809C127.754 170.385 127.931 169.968 128.126 169.559ZM127.173 172.1L127.598 172.219C127.48 172.642 127.381 173.07 127.3 173.504L126.866 173.423C126.949 172.977 127.052 172.535 127.173 172.1ZM126.676 174.768L127.115 174.811C127.072 175.247 127.049 175.686 127.045 176.128L126.604 176.124C126.608 175.669 126.632 175.217 126.676 174.768ZM126.652 177.481L127.092 177.446C127.126 177.882 127.18 178.319 127.253 178.756L126.818 178.829C126.743 178.379 126.687 177.93 126.652 177.481ZM127.102 180.158L127.529 180.047C127.584 180.259 127.643 180.471 127.708 180.683C127.773 180.895 127.842 181.104 127.915 181.311L127.499 181.458C127.424 181.245 127.353 181.03 127.286 180.812C127.22 180.594 127.158 180.376 127.102 180.158ZM128.006 182.718L128.407 182.536C128.591 182.939 128.79 183.332 129.005 183.712L128.621 183.929C128.4 183.537 128.194 183.133 128.006 182.718ZM129.339 185.081L129.703 184.831C129.953 185.196 130.218 185.547 130.496 185.885L130.156 186.166C129.869 185.818 129.596 185.456 129.339 185.081ZM131.065 187.175L131.38 186.866C131.689 187.18 132.011 187.48 132.345 187.765L132.059 188.101C131.715 187.807 131.384 187.499 131.065 187.175ZM133.13 188.936L133.386 188.577C133.744 188.833 134.114 189.073 134.493 189.296L134.269 189.676C133.879 189.446 133.499 189.199 133.13 188.936ZM135.468 190.314L135.658 189.916C136.055 190.106 136.46 190.278 136.872 190.433L136.717 190.846C136.293 190.686 135.876 190.509 135.468 190.314ZM138.009 191.267C138.444 191.388 138.885 191.491 139.331 191.574L139.412 191.141C138.979 191.06 138.55 190.96 138.127 190.842L138.009 191.267ZM140.676 191.764L140.719 191.325C141.155 191.368 141.595 191.391 142.037 191.395L142.033 191.836C141.578 191.832 141.125 191.808 140.676 191.764ZM144.737 191.622L144.664 191.187C144.227 191.261 143.79 191.314 143.355 191.349L143.39 191.788C143.838 191.753 144.288 191.698 144.737 191.622ZM139.529 160.798L139.657 161.22L140.924 160.833L140.795 160.411L139.529 160.798ZM142.062 160.024L142.191 160.446L143.458 160.059L143.329 159.637L142.062 160.024ZM144.596 159.251L144.724 159.672L145.991 159.286L145.862 158.864L144.596 159.251ZM147.129 158.477L147.258 158.899L148.525 158.512L148.396 158.09L147.129 158.477ZM149.663 157.703L149.791 158.125L151.058 157.738L150.929 157.317L149.663 157.703ZM152.196 156.93L152.325 157.352L153.592 156.965L153.463 156.543L152.196 156.93ZM154.73 156.156L154.858 156.578L156.125 156.191L155.996 155.769L154.73 156.156ZM157.263 155.383L157.392 155.804L158.659 155.418L158.53 154.996L157.263 155.383ZM159.797 154.609L159.925 155.031L161.192 154.644L161.063 154.222L159.797 154.609ZM162.33 153.836L162.459 154.257L163.726 153.871L163.597 153.449L162.33 153.836ZM164.864 153.062L164.993 153.484L166.259 153.097L166.131 152.675L164.864 153.062ZM167.397 152.288L167.526 152.71L168.793 152.323L168.664 151.902L167.397 152.288ZM169.931 151.515L170.06 151.937L171.326 151.55L171.198 151.128L169.931 151.515ZM172.464 150.741L172.593 151.163L173.86 150.776L173.731 150.354L172.464 150.741ZM174.998 149.968L175.127 150.389L176.393 150.003L176.265 149.581L174.998 149.968ZM177.531 149.194L177.66 149.616L178.927 149.229L178.798 148.807L177.531 149.194ZM180.065 148.42L180.194 148.842L181.46 148.455L181.332 148.034L180.065 148.42ZM182.598 147.647L182.727 148.069L183.994 147.682L183.865 147.26L182.598 147.647ZM185.132 146.873L185.261 147.295L186.528 146.908L186.399 146.487L185.132 146.873ZM187.665 146.1L187.794 146.522L188.428 146.328C188.639 146.263 188.851 146.204 189.064 146.149L188.953 145.722C188.735 145.778 188.517 145.84 188.299 145.906L187.665 146.1ZM195.491 176.263L195.362 175.841L194.095 176.228L194.224 176.649L195.491 176.263ZM192.957 177.036L192.828 176.614L191.562 177.001L191.69 177.423L192.957 177.036ZM190.424 177.81L190.295 177.388L189.028 177.775L189.157 178.197L190.424 177.81ZM187.89 178.583L187.761 178.162L186.494 178.548L186.623 178.97L187.89 178.583ZM185.356 179.357L185.228 178.935L183.961 179.322L184.09 179.744L185.356 179.357ZM182.823 180.13L182.694 179.709L181.427 180.096L181.556 180.517L182.823 180.13ZM180.289 180.904L180.161 180.482L178.894 180.869L179.023 181.291L180.289 180.904ZM177.756 181.678L177.627 181.256L176.36 181.643L176.489 182.064L177.756 181.678ZM175.222 182.451L175.094 182.029L173.827 182.416L173.956 182.838L175.222 182.451ZM172.689 183.225L172.56 182.803L171.293 183.19L171.422 183.612L172.689 183.225ZM170.155 183.998L170.027 183.577L168.76 183.963L168.889 184.385L170.155 183.998ZM167.622 184.772L167.493 184.35L166.226 184.737L166.355 185.159L167.622 184.772ZM165.088 185.546L164.96 185.124L163.693 185.511L163.822 185.932L165.088 185.546ZM162.555 186.319L162.426 185.897L161.159 186.284L161.288 186.706L162.555 186.319ZM160.021 187.093L159.892 186.671L158.626 187.058L158.754 187.48L160.021 187.093ZM157.488 187.866L157.359 187.445L156.092 187.831L156.221 188.253L157.488 187.866ZM154.954 188.64L154.825 188.218L153.559 188.605L153.687 189.027L154.954 188.64ZM152.421 189.413L152.292 188.992L151.025 189.378L151.154 189.8L152.421 189.413ZM149.887 190.187L149.758 189.765L148.492 190.152L148.62 190.574L149.887 190.187Z" fill="#777E1C"/>
<g opacity="0.7" filter="url(#filter2_i_799_690)">
<path d="M144.622 179.142L142.556 172.979L140.119 171.915L148.033 169.262L146.064 171.803L148.186 178.132L151.713 176.95L153.645 173.681L154.946 177.561L143.319 181.459L144.622 179.142Z" fill="#B5BD44"/>
<path d="M154.351 172.452C154.146 171.84 154.05 171.26 154.064 170.713C154.083 170.164 154.182 169.651 154.364 169.176C154.545 168.701 154.798 168.263 155.123 167.863C155.446 167.458 155.811 167.097 156.217 166.778C156.627 166.453 157.065 166.17 157.532 165.93C157.998 165.685 158.466 165.484 158.936 165.326C159.451 165.153 159.977 165.022 160.514 164.93C161.054 164.833 161.583 164.792 162.101 164.806C162.622 164.814 163.127 164.884 163.615 165.016C164.102 165.144 164.555 165.345 164.972 165.62C165.395 165.893 165.77 166.246 166.097 166.679C166.43 167.11 166.698 167.632 166.904 168.245C167.106 168.848 167.202 169.421 167.191 169.962C167.18 170.504 167.086 171.012 166.909 171.486C166.732 171.959 166.485 172.398 166.166 172.801C165.851 173.203 165.49 173.568 165.082 173.897C164.679 174.225 164.237 174.513 163.758 174.763C163.284 175.011 162.8 175.217 162.308 175.382C161.815 175.548 161.305 175.676 160.779 175.769C160.252 175.862 159.728 175.904 159.207 175.896C158.691 175.887 158.185 175.819 157.689 175.694C157.197 175.568 156.738 175.369 156.311 175.097C155.889 174.824 155.51 174.473 155.173 174.043C154.835 173.608 154.561 173.078 154.351 172.452ZM158.265 171.141C158.44 171.664 158.661 172.131 158.926 172.54C159.191 172.945 159.482 173.277 159.801 173.535C160.119 173.794 160.454 173.968 160.805 174.058C161.156 174.147 161.504 174.134 161.85 174.018C162.196 173.902 162.482 173.7 162.706 173.413C162.93 173.125 163.092 172.782 163.19 172.384C163.293 171.985 163.328 171.543 163.295 171.061C163.264 170.573 163.163 170.071 162.99 169.557C162.816 169.037 162.598 168.57 162.335 168.155C162.071 167.735 161.779 167.394 161.459 167.131C161.142 166.862 160.805 166.681 160.448 166.589C160.09 166.492 159.731 166.503 159.371 166.624C159.025 166.74 158.741 166.944 158.518 167.236C158.293 167.523 158.133 167.87 158.038 168.278C157.941 168.68 157.911 169.129 157.949 169.625C157.986 170.116 158.091 170.622 158.265 171.141Z" fill="#B5BD44"/>
<path d="M168.164 168.029C167.971 167.453 167.875 166.895 167.877 166.356C167.879 165.818 167.962 165.306 168.125 164.822C168.289 164.338 168.524 163.884 168.831 163.46C169.143 163.035 169.508 162.644 169.926 162.286C170.348 161.927 170.817 161.61 171.332 161.334C171.845 161.053 172.389 160.816 172.966 160.623C173.312 160.507 173.666 160.413 174.027 160.341C174.392 160.268 174.753 160.217 175.108 160.186C175.463 160.156 175.808 160.147 176.142 160.158C176.481 160.168 176.799 160.197 177.097 160.245L177.384 159.423L178.875 158.924L179.963 162.171L178.273 162.738C177.975 162.468 177.65 162.249 177.297 162.081C176.949 161.911 176.586 161.791 176.207 161.721C175.832 161.649 175.45 161.629 175.061 161.66C174.675 161.686 174.293 161.762 173.916 161.889C173.504 162.027 173.135 162.23 172.81 162.497C172.485 162.764 172.231 163.09 172.05 163.477C171.869 163.863 171.772 164.31 171.759 164.818C171.745 165.321 171.842 165.881 172.048 166.498C172.246 167.088 172.51 167.58 172.839 167.973C173.171 168.36 173.539 168.656 173.944 168.861C174.347 169.062 174.774 169.173 175.225 169.194C175.681 169.214 176.131 169.15 176.574 169.001C176.965 168.87 177.293 168.73 177.559 168.582C177.824 168.429 178.048 168.243 178.231 168.024L177.673 166.36L175.112 165.145L180.456 163.354L182.161 168.439L180.583 168.967L179.994 168.425C179.789 168.681 179.558 168.919 179.3 169.138C179.042 169.353 178.763 169.551 178.462 169.73C178.164 169.914 177.849 170.079 177.518 170.225C177.188 170.375 176.848 170.508 176.497 170.626C175.898 170.827 175.303 170.987 174.711 171.106C174.124 171.224 173.556 171.289 173.007 171.3C172.456 171.307 171.933 171.255 171.437 171.145C170.94 171.03 170.483 170.845 170.066 170.59C169.649 170.33 169.278 169.991 168.955 169.571C168.632 169.151 168.368 168.637 168.164 168.029Z" fill="#B5BD44"/>
<path d="M182.438 163.037C182.232 162.425 182.137 161.845 182.151 161.298C182.169 160.749 182.269 160.236 182.45 159.761C182.631 159.286 182.884 158.848 183.209 158.448C183.533 158.043 183.897 157.682 184.304 157.363C184.713 157.038 185.151 156.755 185.619 156.515C186.084 156.27 186.552 156.069 187.023 155.911C187.538 155.738 188.063 155.606 188.6 155.515C189.14 155.418 189.669 155.377 190.187 155.391C190.708 155.399 191.213 155.469 191.702 155.601C192.189 155.729 192.641 155.93 193.059 156.205C193.481 156.478 193.856 156.831 194.184 157.264C194.516 157.695 194.785 158.217 194.99 158.83C195.192 159.433 195.288 160.006 195.277 160.547C195.266 161.089 195.172 161.597 194.996 162.071C194.819 162.544 194.571 162.983 194.252 163.386C193.937 163.787 193.576 164.153 193.168 164.482C192.765 164.81 192.324 165.098 191.845 165.348C191.37 165.596 190.886 165.802 190.394 165.967C189.901 166.132 189.392 166.261 188.865 166.354C188.339 166.447 187.815 166.489 187.294 166.481C186.777 166.471 186.271 166.404 185.775 166.279C185.284 166.153 184.825 165.954 184.398 165.682C183.976 165.409 183.596 165.058 183.26 164.628C182.921 164.193 182.647 163.663 182.438 163.037ZM186.351 161.726C186.527 162.249 186.747 162.716 187.013 163.125C187.277 163.53 187.568 163.862 187.887 164.12C188.206 164.379 188.54 164.553 188.891 164.643C189.242 164.732 189.591 164.719 189.937 164.603C190.283 164.487 190.568 164.285 190.792 163.998C191.017 163.71 191.178 163.367 191.277 162.969C191.38 162.569 191.414 162.128 191.381 161.646C191.351 161.158 191.249 160.656 191.077 160.142C190.903 159.622 190.684 159.155 190.422 158.74C190.158 158.32 189.865 157.979 189.545 157.716C189.228 157.447 188.891 157.266 188.534 157.174C188.176 157.077 187.817 157.088 187.458 157.209C187.112 157.325 186.827 157.529 186.604 157.821C186.38 158.108 186.22 158.455 186.124 158.862C186.027 159.265 185.998 159.714 186.036 160.21C186.072 160.701 186.177 161.206 186.351 161.726Z" fill="#B5BD44"/>
</g>
<g filter="url(#filter3_b_799_690)">
<path d="M130.942 188.369L58.5098 234.871V241.449C58.5098 242.455 59.2446 243.268 60.1464 243.268H221.033C221.938 243.268 222.669 242.451 222.669 241.449V234.871L150.237 188.369C144.265 184.536 136.911 184.536 130.939 188.369H130.942Z" fill="#6172CC" fill-opacity="0.72" stroke="#9A8DEA" stroke-opacity="0.35" stroke-width="0.441002" stroke-miterlimit="10"/>
<path d="M135.578 186.232C122.548 178.065 80.9281 152 73.1725 147.428C63.954 141.995 58.5097 141.746 58.5097 141.746V234.87L130.942 188.367C132.415 187.42 133.975 186.707 135.578 186.232Z" fill="#6172CC" fill-opacity="0.72" stroke="#9A8DEA" stroke-opacity="0.35" stroke-width="0.441002" stroke-miterlimit="10"/>
<path d="M145.604 186.232C158.633 178.065 200.253 152 208.009 147.428C217.227 141.995 222.672 141.746 222.672 141.746V234.87L150.24 188.367C148.767 187.42 147.207 186.707 145.604 186.232Z" fill="#6172CC" fill-opacity="0.72" stroke="#9A8DEA" stroke-opacity="0.35" stroke-width="0.441002" stroke-miterlimit="10"/>
</g>
<path d="M185.575 242.752C185.575 245.04 183.72 246.894 181.432 246.894C179.144 246.894 177.29 245.04 177.29 242.752C177.29 240.464 179.144 238.609 181.432 238.609C183.72 238.609 185.575 240.464 185.575 242.752Z" fill="#E1DDF3"/>
<circle cx="203.369" cy="225.57" r="6.51971" fill="#C3CD3D"/>
<g filter="url(#filter4_d_799_690)">
<path d="M228.516 193.904C228.516 201.62 222.261 207.875 214.545 207.875C206.829 207.875 200.574 201.62 200.574 193.904C200.574 186.189 206.829 179.934 214.545 179.934C222.261 179.934 228.516 186.189 228.516 193.904Z" fill="#9388C1"/>
</g>
<path d="M188.486 124.502C187.99 125.431 185.74 129.321 183.134 129.405C183.06 129.409 183.042 129.5 183.109 129.532C185.501 130.583 186.12 135.031 186.231 136.085C186.237 136.149 186.324 136.166 186.354 136.108C186.85 135.18 189.1 131.29 191.706 131.206C191.78 131.201 191.797 131.11 191.731 131.079C189.339 130.028 188.719 125.579 188.609 124.526C188.603 124.462 188.516 124.445 188.486 124.502Z" fill="#E6F156"/>
<path fill-rule="evenodd" clip-rule="evenodd" d="M214.798 195.901L213.346 198.121C212.747 199.037 212.448 199.494 212.141 199.414C211.833 199.333 211.798 198.787 211.728 197.695L211.228 189.925C211.177 189.138 211.152 188.744 211.392 188.608C211.632 188.472 211.957 188.695 212.607 189.141L219.027 193.546C219.929 194.165 220.381 194.475 220.293 194.78C220.205 195.086 219.658 195.109 218.565 195.155L216.713 195.232L218.706 198.83L216.957 199.799L214.798 195.901Z" fill="#E1DDF3"/>
<defs>
<filter id="filter0_i_799_690" x="58.529" y="84" width="165.279" height="148.217" filterUnits="userSpaceOnUse" color-interpolation-filters="sRGB">
<feFlood flood-opacity="0" result="BackgroundImageFix"/>
<feBlend mode="normal" in="SourceGraphic" in2="BackgroundImageFix" result="shape"/>
<feColorMatrix in="SourceAlpha" type="matrix" values="0 0 0 0 0 0 0 0 0 0 0 0 0 0 0 0 0 0 127 0" result="hardAlpha"/>
<feOffset dx="1.323" dy="2.20501"/>
<feGaussianBlur stdDeviation="0.882003"/>
<feComposite in2="hardAlpha" operator="arithmetic" k2="-1" k3="1"/>
<feColorMatrix type="matrix" values="0 0 0 0 0 0 0 0 0 0 0 0 0 0 0 0 0 0 0.06 0"/>
<feBlend mode="normal" in2="shape" result="effect1_innerShadow_799_690"/>
</filter>
<filter id="filter1_i_799_690" x="75.4289" y="128.912" width="69.6393" height="69.639" filterUnits="userSpaceOnUse" color-interpolation-filters="sRGB">
<feFlood flood-opacity="0" result="BackgroundImageFix"/>
<feBlend mode="normal" in="SourceGraphic" in2="BackgroundImageFix" result="shape"/>
<feColorMatrix in="SourceAlpha" type="matrix" values="0 0 0 0 0 0 0 0 0 0 0 0 0 0 0 0 0 0 127 0" result="hardAlpha"/>
<feOffset dx="-3.52801" dy="1.76401"/>
<feGaussianBlur stdDeviation="0.882003"/>
<feComposite in2="hardAlpha" operator="arithmetic" k2="-1" k3="1"/>
<feColorMatrix type="matrix" values="0 0 0 0 0 0 0 0 0 0 0 0 0 0 0 0 0 0 0.1 0"/>
<feBlend mode="normal" in2="shape" result="effect1_innerShadow_799_690"/>
</filter>
<filter id="filter2_i_799_690" x="140.119" y="155.389" width="55.1586" height="26.5113" filterUnits="userSpaceOnUse" color-interpolation-filters="sRGB">
<feFlood flood-opacity="0" result="BackgroundImageFix"/>
<feBlend mode="normal" in="SourceGraphic" in2="BackgroundImageFix" result="shape"/>
<feColorMatrix in="SourceAlpha" type="matrix" values="0 0 0 0 0 0 0 0 0 0 0 0 0 0 0 0 0 0 127 0" result="hardAlpha"/>
<feOffset dy="0.441001"/>
<feGaussianBlur stdDeviation="0.441001"/>
<feComposite in2="hardAlpha" operator="arithmetic" k2="-1" k3="1"/>
<feColorMatrix type="matrix" values="0 0 0 0 0.570194 0 0 0 0 0.6 0 0 0 0 0.18 0 0 0 1 0"/>
<feBlend mode="normal" in2="shape" result="effect1_innerShadow_799_690"/>
</filter>
<filter id="filter3_b_799_690" x="50.7922" y="134.019" width="179.597" height="116.967" filterUnits="userSpaceOnUse" color-interpolation-filters="sRGB">
<feFlood flood-opacity="0" result="BackgroundImageFix"/>
<feGaussianBlur in="BackgroundImageFix" stdDeviation="3.74851"/>
<feComposite in2="SourceAlpha" operator="in" result="effect1_backgroundBlur_799_690"/>
<feBlend mode="normal" in="SourceGraphic" in2="effect1_backgroundBlur_799_690" result="shape"/>
</filter>
<filter id="filter4_d_799_690" x="200.574" y="179.934" width="39.5566" height="38.2334" filterUnits="userSpaceOnUse" color-interpolation-filters="sRGB">
<feFlood flood-opacity="0" result="BackgroundImageFix"/>
<feColorMatrix in="SourceAlpha" type="matrix" values="0 0 0 0 0 0 0 0 0 0 0 0 0 0 0 0 0 0 127 0" result="hardAlpha"/>
<feOffset dx="6.61502" dy="5.29202"/>
<feGaussianBlur stdDeviation="2.5"/>
<feComposite in2="hardAlpha" operator="out"/>
<feColorMatrix type="matrix" values="0 0 0 0 0.469919 0 0 0 0 0.452812 0 0 0 0 0.575 0 0 0 0.25 0"/>
<feBlend mode="normal" in2="BackgroundImageFix" result="effect1_dropShadow_799_690"/>
<feBlend mode="normal" in="SourceGraphic" in2="effect1_dropShadow_799_690" result="shape"/>
</filter>
<clipPath id="clip0_799_690">
<rect width="67.8618" height="67.8614" fill="white" transform="matrix(0.979519 0.201354 -0.201357 0.979518 84.7268 122.781)"/>
</clipPath>
</defs>
</svg>
