<svg width="118" height="41" viewBox="0 0 118 41" fill="none" xmlns="http://www.w3.org/2000/svg">
<rect width="118" height="41" rx="7" fill="#3C3D3D"/>
<path d="M24.344 22.328L22.056 21.752C21.2773 21.56 20.7173 21.2187 20.376 20.728C20.0453 20.2267 19.88 19.544 19.88 18.68C19.88 18.04 19.944 17.528 20.072 17.144C20.2107 16.7493 20.44 16.456 20.76 16.264C21.0907 16.0613 21.4533 15.928 21.848 15.864C22.2533 15.8 22.792 15.768 23.464 15.768C24.7653 15.7893 25.8587 15.896 26.744 16.088L26.648 17.112C25.6133 17.0587 24.5733 17.032 23.528 17.032C23.0587 17.032 22.712 17.0427 22.488 17.064C22.264 17.0853 22.0453 17.1493 21.832 17.256C21.6187 17.3627 21.4747 17.5333 21.4 17.768C21.336 17.992 21.304 18.3067 21.304 18.712C21.304 19.2987 21.4053 19.7147 21.608 19.96C21.8213 20.2053 22.184 20.392 22.696 20.52L24.936 21.08C25.7573 21.2827 26.3333 21.6293 26.664 22.12C26.9947 22.6107 27.16 23.2987 27.16 24.184C27.16 25.4 26.8827 26.2053 26.328 26.6C25.784 26.9947 24.8293 27.192 23.464 27.192C22.3013 27.192 21.16 27.0907 20.04 26.888L20.136 25.848C21.928 25.912 23.0533 25.9387 23.512 25.928C24.3867 25.928 24.9733 25.816 25.272 25.592C25.5813 25.368 25.736 24.888 25.736 24.152C25.736 23.544 25.6293 23.1227 25.416 22.888C25.2133 22.6427 24.856 22.456 24.344 22.328ZM33.9048 23.768H30.2728C30.3474 24.664 30.5661 25.2667 30.9288 25.576C31.2914 25.8853 31.8941 26.04 32.7368 26.04C33.6221 26.04 34.5234 25.976 35.4408 25.848L35.5848 26.76C34.8914 27.048 33.8834 27.192 32.5608 27.192C31.2168 27.192 30.2568 26.8827 29.6808 26.264C29.1154 25.6347 28.8328 24.5733 28.8328 23.08C28.8328 21.576 29.1101 20.5253 29.6648 19.928C30.2194 19.32 31.1368 19.016 32.4168 19.016C33.5794 19.016 34.4274 19.2293 34.9608 19.656C35.4941 20.072 35.7608 20.7067 35.7608 21.56C35.7821 23.032 35.1634 23.768 33.9048 23.768ZM30.2568 22.712H33.5528C34.1181 22.712 34.4008 22.328 34.4008 21.56C34.3901 21.0587 34.2408 20.7013 33.9528 20.488C33.6648 20.2747 33.1741 20.168 32.4808 20.168C31.6594 20.168 31.0888 20.3493 30.7688 20.712C30.4488 21.064 30.2781 21.7307 30.2568 22.712ZM42.4985 23.768H38.8665C38.9412 24.664 39.1598 25.2667 39.5225 25.576C39.8852 25.8853 40.4878 26.04 41.3305 26.04C42.2158 26.04 43.1172 25.976 44.0345 25.848L44.1785 26.76C43.4852 27.048 42.4772 27.192 41.1545 27.192C39.8105 27.192 38.8505 26.8827 38.2745 26.264C37.7092 25.6347 37.4265 24.5733 37.4265 23.08C37.4265 21.576 37.7038 20.5253 38.2585 19.928C38.8132 19.32 39.7305 19.016 41.0105 19.016C42.1732 19.016 43.0212 19.2293 43.5545 19.656C44.0878 20.072 44.3545 20.7067 44.3545 21.56C44.3758 23.032 43.7572 23.768 42.4985 23.768ZM38.8505 22.712H42.1465C42.7118 22.712 42.9945 22.328 42.9945 21.56C42.9838 21.0587 42.8345 20.7013 42.5465 20.488C42.2585 20.2747 41.7678 20.168 41.0745 20.168C40.2532 20.168 39.6825 20.3493 39.3625 20.712C39.0425 21.064 38.8718 21.7307 38.8505 22.712ZM51.0868 19.208L51.1988 20.456C51.6148 20.008 52.1161 19.656 52.7028 19.4C53.2894 19.144 53.8654 19.016 54.4308 19.016C55.3588 19.016 56.0361 19.3573 56.4628 20.04C56.8894 20.7227 57.1028 21.7573 57.1028 23.144C57.1028 24.616 56.8681 25.6613 56.3988 26.28C55.9294 26.888 55.1828 27.192 54.1588 27.192C53.1348 27.192 52.1748 26.9253 51.2788 26.392C51.3108 26.7547 51.3268 27.2773 51.3268 27.96V30.216H49.9668V19.208H51.0868ZM51.3268 21.4V25.528C52.4148 25.848 53.2468 26.008 53.8228 26.008C54.5268 26.008 55.0174 25.8107 55.2948 25.416C55.5721 25.0213 55.7108 24.264 55.7108 23.144C55.7108 22.056 55.5774 21.2933 55.3108 20.856C55.0548 20.4187 54.6121 20.2 53.9828 20.2C53.5774 20.2 53.1721 20.296 52.7668 20.488C52.3721 20.6693 51.8921 20.9733 51.3268 21.4ZM64.128 19.016L63.968 20.296H63.52C63.1253 20.296 62.7147 20.376 62.288 20.536C61.872 20.6853 61.312 20.936 60.608 21.288V27H59.248V19.208H60.304L60.448 20.44C61.6533 19.4907 62.7627 19.016 63.776 19.016H64.128ZM68.7628 19.016C70.1068 19.016 71.0508 19.3253 71.5948 19.944C72.1494 20.5627 72.4268 21.6187 72.4268 23.112C72.4268 24.6053 72.1494 25.6613 71.5948 26.28C71.0508 26.8987 70.1068 27.208 68.7628 27.208C67.4294 27.208 66.4854 26.8987 65.9308 26.28C65.3761 25.6613 65.0988 24.6053 65.0988 23.112C65.0988 21.6187 65.3761 20.5627 65.9308 19.944C66.4854 19.3253 67.4294 19.016 68.7628 19.016ZM70.5228 20.792C70.2028 20.376 69.6161 20.168 68.7628 20.168C67.9094 20.168 67.3228 20.376 67.0028 20.792C66.6828 21.208 66.5228 21.9813 66.5228 23.112C66.5228 24.2427 66.6828 25.016 67.0028 25.432C67.3228 25.848 67.9094 26.056 68.7628 26.056C69.6161 26.056 70.2028 25.848 70.5228 25.432C70.8534 25.016 71.0188 24.2427 71.0188 23.112C71.0188 21.9813 70.8534 21.208 70.5228 20.792ZM75.0085 15.896H75.6485C75.9152 15.896 76.0485 16.0347 76.0485 16.312V17.224C76.0485 17.5013 75.9152 17.64 75.6485 17.64H75.0085C74.7312 17.64 74.5925 17.5013 74.5925 17.224V16.312C74.5925 16.0347 74.7312 15.896 75.0085 15.896ZM76.0005 19.208V27.192C76.0005 27.8107 75.8672 28.3867 75.6005 28.92C75.3338 29.4533 74.9658 29.896 74.4965 30.248L73.7445 29.656C74.3418 28.92 74.6405 28.0987 74.6405 27.192V19.208H76.0005ZM83.2485 23.768H79.6165C79.6912 24.664 79.9098 25.2667 80.2725 25.576C80.6352 25.8853 81.2378 26.04 82.0805 26.04C82.9658 26.04 83.8672 25.976 84.7845 25.848L84.9285 26.76C84.2352 27.048 83.2272 27.192 81.9045 27.192C80.5605 27.192 79.6005 26.8827 79.0245 26.264C78.4592 25.6347 78.1765 24.5733 78.1765 23.08C78.1765 21.576 78.4538 20.5253 79.0085 19.928C79.5632 19.32 80.4805 19.016 81.7605 19.016C82.9232 19.016 83.7712 19.2293 84.3045 19.656C84.8378 20.072 85.1045 20.7067 85.1045 21.56C85.1258 23.032 84.5072 23.768 83.2485 23.768ZM79.6005 22.712H82.8965C83.4618 22.712 83.7445 22.328 83.7445 21.56C83.7338 21.0587 83.5845 20.7013 83.2965 20.488C83.0085 20.2747 82.5178 20.168 81.8245 20.168C81.0032 20.168 80.4325 20.3493 80.1125 20.712C79.7925 21.064 79.6218 21.7307 79.6005 22.712ZM92.9943 25.88L93.1383 26.792C92.3703 27.0587 91.4796 27.192 90.4663 27.192C89.1223 27.192 88.1676 26.888 87.6023 26.28C87.0476 25.6613 86.7703 24.6 86.7703 23.096C86.7703 21.592 87.0476 20.536 87.6023 19.928C88.1676 19.32 89.1276 19.016 90.4823 19.016C91.5063 19.016 92.3436 19.1387 92.9943 19.384L92.8183 20.264C92.1143 20.2 91.4103 20.168 90.7063 20.168C89.7676 20.168 89.1169 20.376 88.7543 20.792C88.3916 21.208 88.2103 21.976 88.2103 23.096C88.2103 24.2267 88.3916 25 88.7543 25.416C89.1169 25.832 89.7676 26.04 90.7063 26.04C91.5596 26.04 92.3223 25.9867 92.9943 25.88ZM96.9344 20.28V24.856C96.9344 25.2293 97.0144 25.496 97.1744 25.656C97.3344 25.816 97.6064 25.896 97.9904 25.896H99.1744L99.3344 26.936C98.8437 27.0747 98.257 27.144 97.5744 27.144C96.9237 27.144 96.4277 26.9627 96.0864 26.6C95.745 26.2373 95.5744 25.7147 95.5744 25.032V20.28H94.1664V19.288L95.5744 19.224V16.904H96.9344V19.208H99.4144V20.28H96.9344Z" fill="#CBC4EB"/>
</svg>
