<svg width="118" height="41" viewBox="0 0 118 41" fill="none" xmlns="http://www.w3.org/2000/svg">
<rect width="118" height="41" rx="7" fill="#D6E146"/>
<path d="M24.344 21.328L22.056 20.752C21.2773 20.56 20.7173 20.2187 20.376 19.728C20.0453 19.2267 19.88 18.544 19.88 17.68C19.88 17.04 19.944 16.528 20.072 16.144C20.2107 15.7493 20.44 15.456 20.76 15.264C21.0907 15.0613 21.4533 14.928 21.848 14.864C22.2533 14.8 22.792 14.768 23.464 14.768C24.7653 14.7893 25.8587 14.896 26.744 15.088L26.648 16.112C25.6133 16.0587 24.5733 16.032 23.528 16.032C23.0587 16.032 22.712 16.0427 22.488 16.064C22.264 16.0853 22.0453 16.1493 21.832 16.256C21.6187 16.3627 21.4747 16.5333 21.4 16.768C21.336 16.992 21.304 17.3067 21.304 17.712C21.304 18.2987 21.4053 18.7147 21.608 18.96C21.8213 19.2053 22.184 19.392 22.696 19.52L24.936 20.08C25.7573 20.2827 26.3333 20.6293 26.664 21.12C26.9947 21.6107 27.16 22.2987 27.16 23.184C27.16 24.4 26.8827 25.2053 26.328 25.6C25.784 25.9947 24.8293 26.192 23.464 26.192C22.3013 26.192 21.16 26.0907 20.04 25.888L20.136 24.848C21.928 24.912 23.0533 24.9387 23.512 24.928C24.3867 24.928 24.9733 24.816 25.272 24.592C25.5813 24.368 25.736 23.888 25.736 23.152C25.736 22.544 25.6293 22.1227 25.416 21.888C25.2133 21.6427 24.856 21.456 24.344 21.328ZM33.9048 22.768H30.2728C30.3474 23.664 30.5661 24.2667 30.9288 24.576C31.2914 24.8853 31.8941 25.04 32.7368 25.04C33.6221 25.04 34.5234 24.976 35.4408 24.848L35.5848 25.76C34.8914 26.048 33.8834 26.192 32.5608 26.192C31.2168 26.192 30.2568 25.8827 29.6808 25.264C29.1154 24.6347 28.8328 23.5733 28.8328 22.08C28.8328 20.576 29.1101 19.5253 29.6648 18.928C30.2194 18.32 31.1368 18.016 32.4168 18.016C33.5794 18.016 34.4274 18.2293 34.9608 18.656C35.4941 19.072 35.7608 19.7067 35.7608 20.56C35.7821 22.032 35.1634 22.768 33.9048 22.768ZM30.2568 21.712H33.5528C34.1181 21.712 34.4008 21.328 34.4008 20.56C34.3901 20.0587 34.2408 19.7013 33.9528 19.488C33.6648 19.2747 33.1741 19.168 32.4808 19.168C31.6594 19.168 31.0888 19.3493 30.7688 19.712C30.4488 20.064 30.2781 20.7307 30.2568 21.712ZM42.4985 22.768H38.8665C38.9412 23.664 39.1598 24.2667 39.5225 24.576C39.8852 24.8853 40.4878 25.04 41.3305 25.04C42.2158 25.04 43.1172 24.976 44.0345 24.848L44.1785 25.76C43.4852 26.048 42.4772 26.192 41.1545 26.192C39.8105 26.192 38.8505 25.8827 38.2745 25.264C37.7092 24.6347 37.4265 23.5733 37.4265 22.08C37.4265 20.576 37.7038 19.5253 38.2585 18.928C38.8132 18.32 39.7305 18.016 41.0105 18.016C42.1732 18.016 43.0212 18.2293 43.5545 18.656C44.0878 19.072 44.3545 19.7067 44.3545 20.56C44.3758 22.032 43.7572 22.768 42.4985 22.768ZM38.8505 21.712H42.1465C42.7118 21.712 42.9945 21.328 42.9945 20.56C42.9838 20.0587 42.8345 19.7013 42.5465 19.488C42.2585 19.2747 41.7678 19.168 41.0745 19.168C40.2532 19.168 39.6825 19.3493 39.3625 19.712C39.0425 20.064 38.8718 20.7307 38.8505 21.712ZM51.0868 18.208L51.1988 19.456C51.6148 19.008 52.1161 18.656 52.7028 18.4C53.2894 18.144 53.8654 18.016 54.4308 18.016C55.3588 18.016 56.0361 18.3573 56.4628 19.04C56.8894 19.7227 57.1028 20.7573 57.1028 22.144C57.1028 23.616 56.8681 24.6613 56.3988 25.28C55.9294 25.888 55.1828 26.192 54.1588 26.192C53.1348 26.192 52.1748 25.9253 51.2788 25.392C51.3108 25.7547 51.3268 26.2773 51.3268 26.96V29.216H49.9668V18.208H51.0868ZM51.3268 20.4V24.528C52.4148 24.848 53.2468 25.008 53.8228 25.008C54.5268 25.008 55.0174 24.8107 55.2948 24.416C55.5721 24.0213 55.7108 23.264 55.7108 22.144C55.7108 21.056 55.5774 20.2933 55.3108 19.856C55.0548 19.4187 54.6121 19.2 53.9828 19.2C53.5774 19.2 53.1721 19.296 52.7668 19.488C52.3721 19.6693 51.8921 19.9733 51.3268 20.4ZM64.128 18.016L63.968 19.296H63.52C63.1253 19.296 62.7147 19.376 62.288 19.536C61.872 19.6853 61.312 19.936 60.608 20.288V26H59.248V18.208H60.304L60.448 19.44C61.6533 18.4907 62.7627 18.016 63.776 18.016H64.128ZM68.7628 18.016C70.1068 18.016 71.0508 18.3253 71.5948 18.944C72.1494 19.5627 72.4268 20.6187 72.4268 22.112C72.4268 23.6053 72.1494 24.6613 71.5948 25.28C71.0508 25.8987 70.1068 26.208 68.7628 26.208C67.4294 26.208 66.4854 25.8987 65.9308 25.28C65.3761 24.6613 65.0988 23.6053 65.0988 22.112C65.0988 20.6187 65.3761 19.5627 65.9308 18.944C66.4854 18.3253 67.4294 18.016 68.7628 18.016ZM70.5228 19.792C70.2028 19.376 69.6161 19.168 68.7628 19.168C67.9094 19.168 67.3228 19.376 67.0028 19.792C66.6828 20.208 66.5228 20.9813 66.5228 22.112C66.5228 23.2427 66.6828 24.016 67.0028 24.432C67.3228 24.848 67.9094 25.056 68.7628 25.056C69.6161 25.056 70.2028 24.848 70.5228 24.432C70.8534 24.016 71.0188 23.2427 71.0188 22.112C71.0188 20.9813 70.8534 20.208 70.5228 19.792ZM75.0085 14.896H75.6485C75.9152 14.896 76.0485 15.0347 76.0485 15.312V16.224C76.0485 16.5013 75.9152 16.64 75.6485 16.64H75.0085C74.7312 16.64 74.5925 16.5013 74.5925 16.224V15.312C74.5925 15.0347 74.7312 14.896 75.0085 14.896ZM76.0005 18.208V26.192C76.0005 26.8107 75.8672 27.3867 75.6005 27.92C75.3338 28.4533 74.9658 28.896 74.4965 29.248L73.7445 28.656C74.3418 27.92 74.6405 27.0987 74.6405 26.192V18.208H76.0005ZM83.2485 22.768H79.6165C79.6912 23.664 79.9098 24.2667 80.2725 24.576C80.6352 24.8853 81.2378 25.04 82.0805 25.04C82.9658 25.04 83.8672 24.976 84.7845 24.848L84.9285 25.76C84.2352 26.048 83.2272 26.192 81.9045 26.192C80.5605 26.192 79.6005 25.8827 79.0245 25.264C78.4592 24.6347 78.1765 23.5733 78.1765 22.08C78.1765 20.576 78.4538 19.5253 79.0085 18.928C79.5632 18.32 80.4805 18.016 81.7605 18.016C82.9232 18.016 83.7712 18.2293 84.3045 18.656C84.8378 19.072 85.1045 19.7067 85.1045 20.56C85.1258 22.032 84.5072 22.768 83.2485 22.768ZM79.6005 21.712H82.8965C83.4618 21.712 83.7445 21.328 83.7445 20.56C83.7338 20.0587 83.5845 19.7013 83.2965 19.488C83.0085 19.2747 82.5178 19.168 81.8245 19.168C81.0032 19.168 80.4325 19.3493 80.1125 19.712C79.7925 20.064 79.6218 20.7307 79.6005 21.712ZM92.9943 24.88L93.1383 25.792C92.3703 26.0587 91.4796 26.192 90.4663 26.192C89.1223 26.192 88.1676 25.888 87.6023 25.28C87.0476 24.6613 86.7703 23.6 86.7703 22.096C86.7703 20.592 87.0476 19.536 87.6023 18.928C88.1676 18.32 89.1276 18.016 90.4823 18.016C91.5063 18.016 92.3436 18.1387 92.9943 18.384L92.8183 19.264C92.1143 19.2 91.4103 19.168 90.7063 19.168C89.7676 19.168 89.1169 19.376 88.7543 19.792C88.3916 20.208 88.2103 20.976 88.2103 22.096C88.2103 23.2267 88.3916 24 88.7543 24.416C89.1169 24.832 89.7676 25.04 90.7063 25.04C91.5596 25.04 92.3223 24.9867 92.9943 24.88ZM96.9344 19.28V23.856C96.9344 24.2293 97.0144 24.496 97.1744 24.656C97.3344 24.816 97.6064 24.896 97.9904 24.896H99.1744L99.3344 25.936C98.8437 26.0747 98.257 26.144 97.5744 26.144C96.9237 26.144 96.4277 25.9627 96.0864 25.6C95.745 25.2373 95.5744 24.7147 95.5744 24.032V19.28H94.1664V18.288L95.5744 18.224V15.904H96.9344V18.208H99.4144V19.28H96.9344Z" fill="#3C3D3D"/>
</svg>
