<svg width="113" height="39" viewBox="0 0 113 39" fill="none" xmlns="http://www.w3.org/2000/svg">
<rect width="113" height="39" rx="7" fill="#3C3D3D"/>
<path d="M21.344 21.328L19.056 20.752C18.2773 20.56 17.7173 20.2187 17.376 19.728C17.0453 19.2267 16.88 18.544 16.88 17.68C16.88 17.04 16.944 16.528 17.072 16.144C17.2107 15.7493 17.44 15.456 17.76 15.264C18.0907 15.0613 18.4533 14.928 18.848 14.864C19.2533 14.8 19.792 14.768 20.464 14.768C21.7653 14.7893 22.8587 14.896 23.744 15.088L23.648 16.112C22.6133 16.0587 21.5733 16.032 20.528 16.032C20.0587 16.032 19.712 16.0427 19.488 16.064C19.264 16.0853 19.0453 16.1493 18.832 16.256C18.6187 16.3627 18.4747 16.5333 18.4 16.768C18.336 16.992 18.304 17.3067 18.304 17.712C18.304 18.2987 18.4053 18.7147 18.608 18.96C18.8213 19.2053 19.184 19.392 19.696 19.52L21.936 20.08C22.7573 20.2827 23.3333 20.6293 23.664 21.12C23.9947 21.6107 24.16 22.2987 24.16 23.184C24.16 24.4 23.8827 25.2053 23.328 25.6C22.784 25.9947 21.8293 26.192 20.464 26.192C19.3013 26.192 18.16 26.0907 17.04 25.888L17.136 24.848C18.928 24.912 20.0533 24.9387 20.512 24.928C21.3867 24.928 21.9733 24.816 22.272 24.592C22.5813 24.368 22.736 23.888 22.736 23.152C22.736 22.544 22.6293 22.1227 22.416 21.888C22.2133 21.6427 21.856 21.456 21.344 21.328ZM30.9048 22.768H27.2728C27.3474 23.664 27.5661 24.2667 27.9288 24.576C28.2914 24.8853 28.8941 25.04 29.7368 25.04C30.6221 25.04 31.5234 24.976 32.4408 24.848L32.5848 25.76C31.8914 26.048 30.8834 26.192 29.5608 26.192C28.2168 26.192 27.2568 25.8827 26.6808 25.264C26.1154 24.6347 25.8328 23.5733 25.8328 22.08C25.8328 20.576 26.1101 19.5253 26.6648 18.928C27.2194 18.32 28.1368 18.016 29.4168 18.016C30.5794 18.016 31.4274 18.2293 31.9608 18.656C32.4941 19.072 32.7608 19.7067 32.7608 20.56C32.7821 22.032 32.1634 22.768 30.9048 22.768ZM27.2568 21.712H30.5528C31.1181 21.712 31.4008 21.328 31.4008 20.56C31.3901 20.0587 31.2408 19.7013 30.9528 19.488C30.6648 19.2747 30.1741 19.168 29.4808 19.168C28.6594 19.168 28.0888 19.3493 27.7688 19.712C27.4488 20.064 27.2781 20.7307 27.2568 21.712ZM39.4985 22.768H35.8665C35.9412 23.664 36.1598 24.2667 36.5225 24.576C36.8852 24.8853 37.4878 25.04 38.3305 25.04C39.2158 25.04 40.1172 24.976 41.0345 24.848L41.1785 25.76C40.4852 26.048 39.4772 26.192 38.1545 26.192C36.8105 26.192 35.8505 25.8827 35.2745 25.264C34.7092 24.6347 34.4265 23.5733 34.4265 22.08C34.4265 20.576 34.7038 19.5253 35.2585 18.928C35.8132 18.32 36.7305 18.016 38.0105 18.016C39.1732 18.016 40.0212 18.2293 40.5545 18.656C41.0878 19.072 41.3545 19.7067 41.3545 20.56C41.3758 22.032 40.7572 22.768 39.4985 22.768ZM35.8505 21.712H39.1465C39.7118 21.712 39.9945 21.328 39.9945 20.56C39.9838 20.0587 39.8345 19.7013 39.5465 19.488C39.2585 19.2747 38.7678 19.168 38.0745 19.168C37.2532 19.168 36.6825 19.3493 36.3625 19.712C36.0425 20.064 35.8718 20.7307 35.8505 21.712ZM48.0868 18.208L48.1988 19.456C48.6148 19.008 49.1161 18.656 49.7028 18.4C50.2894 18.144 50.8654 18.016 51.4308 18.016C52.3588 18.016 53.0361 18.3573 53.4628 19.04C53.8894 19.7227 54.1028 20.7573 54.1028 22.144C54.1028 23.616 53.8681 24.6613 53.3988 25.28C52.9294 25.888 52.1828 26.192 51.1588 26.192C50.1348 26.192 49.1748 25.9253 48.2788 25.392C48.3108 25.7547 48.3268 26.2773 48.3268 26.96V29.216H46.9668V18.208H48.0868ZM48.3268 20.4V24.528C49.4148 24.848 50.2468 25.008 50.8228 25.008C51.5268 25.008 52.0174 24.8107 52.2948 24.416C52.5721 24.0213 52.7108 23.264 52.7108 22.144C52.7108 21.056 52.5774 20.2933 52.3108 19.856C52.0548 19.4187 51.6121 19.2 50.9828 19.2C50.5774 19.2 50.1721 19.296 49.7668 19.488C49.3721 19.6693 48.8921 19.9733 48.3268 20.4ZM61.128 18.016L60.968 19.296H60.52C60.1253 19.296 59.7147 19.376 59.288 19.536C58.872 19.6853 58.312 19.936 57.608 20.288V26H56.248V18.208H57.304L57.448 19.44C58.6533 18.4907 59.7627 18.016 60.776 18.016H61.128ZM65.7628 18.016C67.1068 18.016 68.0508 18.3253 68.5948 18.944C69.1494 19.5627 69.4268 20.6187 69.4268 22.112C69.4268 23.6053 69.1494 24.6613 68.5948 25.28C68.0508 25.8987 67.1068 26.208 65.7628 26.208C64.4294 26.208 63.4854 25.8987 62.9308 25.28C62.3761 24.6613 62.0988 23.6053 62.0988 22.112C62.0988 20.6187 62.3761 19.5627 62.9308 18.944C63.4854 18.3253 64.4294 18.016 65.7628 18.016ZM67.5228 19.792C67.2028 19.376 66.6161 19.168 65.7628 19.168C64.9094 19.168 64.3228 19.376 64.0028 19.792C63.6828 20.208 63.5228 20.9813 63.5228 22.112C63.5228 23.2427 63.6828 24.016 64.0028 24.432C64.3228 24.848 64.9094 25.056 65.7628 25.056C66.6161 25.056 67.2028 24.848 67.5228 24.432C67.8534 24.016 68.0188 23.2427 68.0188 22.112C68.0188 20.9813 67.8534 20.208 67.5228 19.792ZM72.0085 14.896H72.6485C72.9152 14.896 73.0485 15.0347 73.0485 15.312V16.224C73.0485 16.5013 72.9152 16.64 72.6485 16.64H72.0085C71.7312 16.64 71.5925 16.5013 71.5925 16.224V15.312C71.5925 15.0347 71.7312 14.896 72.0085 14.896ZM73.0005 18.208V26.192C73.0005 26.8107 72.8672 27.3867 72.6005 27.92C72.3338 28.4533 71.9658 28.896 71.4965 29.248L70.7445 28.656C71.3418 27.92 71.6405 27.0987 71.6405 26.192V18.208H73.0005ZM80.2485 22.768H76.6165C76.6912 23.664 76.9098 24.2667 77.2725 24.576C77.6352 24.8853 78.2378 25.04 79.0805 25.04C79.9658 25.04 80.8672 24.976 81.7845 24.848L81.9285 25.76C81.2352 26.048 80.2272 26.192 78.9045 26.192C77.5605 26.192 76.6005 25.8827 76.0245 25.264C75.4592 24.6347 75.1765 23.5733 75.1765 22.08C75.1765 20.576 75.4538 19.5253 76.0085 18.928C76.5632 18.32 77.4805 18.016 78.7605 18.016C79.9232 18.016 80.7712 18.2293 81.3045 18.656C81.8378 19.072 82.1045 19.7067 82.1045 20.56C82.1258 22.032 81.5072 22.768 80.2485 22.768ZM76.6005 21.712H79.8965C80.4618 21.712 80.7445 21.328 80.7445 20.56C80.7338 20.0587 80.5845 19.7013 80.2965 19.488C80.0085 19.2747 79.5178 19.168 78.8245 19.168C78.0032 19.168 77.4325 19.3493 77.1125 19.712C76.7925 20.064 76.6218 20.7307 76.6005 21.712ZM89.9943 24.88L90.1383 25.792C89.3703 26.0587 88.4796 26.192 87.4663 26.192C86.1223 26.192 85.1676 25.888 84.6023 25.28C84.0476 24.6613 83.7703 23.6 83.7703 22.096C83.7703 20.592 84.0476 19.536 84.6023 18.928C85.1676 18.32 86.1276 18.016 87.4823 18.016C88.5063 18.016 89.3436 18.1387 89.9943 18.384L89.8183 19.264C89.1143 19.2 88.4103 19.168 87.7063 19.168C86.7676 19.168 86.1169 19.376 85.7543 19.792C85.3916 20.208 85.2103 20.976 85.2103 22.096C85.2103 23.2267 85.3916 24 85.7543 24.416C86.1169 24.832 86.7676 25.04 87.7063 25.04C88.5596 25.04 89.3223 24.9867 89.9943 24.88ZM93.9344 19.28V23.856C93.9344 24.2293 94.0144 24.496 94.1744 24.656C94.3344 24.816 94.6064 24.896 94.9904 24.896H96.1744L96.3344 25.936C95.8437 26.0747 95.257 26.144 94.5744 26.144C93.9237 26.144 93.4277 25.9627 93.0864 25.6C92.745 25.2373 92.5744 24.7147 92.5744 24.032V19.28H91.1664V18.288L92.5744 18.224V15.904H93.9344V18.208H96.4144V19.28H93.9344Z" fill="#E6F156"/>
</svg>
