<svg width="350" height="210" viewBox="0 0 350 210" fill="none" xmlns="http://www.w3.org/2000/svg">
<path opacity="0.5" d="M174 0L174 210" stroke="#FA2E2E" stroke-width="0.5" stroke-dasharray="4 4"/>
<path opacity="0.5" d="M304 0L304 210" stroke="black" stroke-width="0.5" stroke-dasharray="4 4"/>
<path opacity="0.5" d="M44 0L44 210" stroke="black" stroke-width="0.5" stroke-dasharray="4 4"/>
<path opacity="0.5" d="M350 18L1.2517e-05 18" stroke="black" stroke-width="0.5" stroke-dasharray="4 4"/>
<path opacity="0.5" d="M350 67L1.2517e-05 67" stroke="black" stroke-width="0.5" stroke-dasharray="4 4"/>
<path opacity="0.5" d="M350 82L1.2517e-05 82" stroke="black" stroke-width="0.5" stroke-dasharray="4 4"/>
<path opacity="0.5" d="M350 131L1.2517e-05 131" stroke="black" stroke-width="0.5" stroke-dasharray="4 4"/>
<path opacity="0.5" d="M350 146L1.2517e-05 146" stroke="black" stroke-width="0.5" stroke-dasharray="4 4"/>
<path opacity="0.5" d="M350 195L1.2517e-05 195" stroke="black" stroke-width="0.5" stroke-dasharray="4 4"/>
<rect x="41" y="18" width="263" height="49" rx="24.5" fill="#AEA6D2"/>
<path d="M96.2599 51.971H94.6259V38.5H96.2599V39.963C96.5892 39.4817 97.0516 39.089 97.6469 38.785C98.2549 38.4683 98.9072 38.31 99.6039 38.31C100.921 38.31 102.023 38.7913 102.91 39.754C103.809 40.7167 104.259 41.882 104.259 43.25C104.259 44.618 103.809 45.7833 102.91 46.746C102.023 47.7087 100.921 48.19 99.6039 48.19C98.9072 48.19 98.2549 48.038 97.6469 47.734C97.0516 47.4173 96.5892 47.0183 96.2599 46.537V51.971ZM97.0389 45.701C97.6469 46.3597 98.4196 46.689 99.3569 46.689C100.294 46.689 101.067 46.3597 101.675 45.701C102.283 45.0423 102.587 44.2253 102.587 43.25C102.587 42.2747 102.283 41.4577 101.675 40.799C101.067 40.1403 100.294 39.811 99.3569 39.811C98.4196 39.811 97.6469 40.1403 97.0389 40.799C96.4309 41.4577 96.1269 42.2747 96.1269 43.25C96.1269 44.2253 96.4309 45.0423 97.0389 45.701ZM106.612 48V38.5H108.246V40.343C108.424 39.7603 108.766 39.2917 109.272 38.937C109.792 38.5823 110.336 38.405 110.906 38.405C111.185 38.405 111.432 38.4303 111.647 38.481V40.172C111.419 40.0707 111.122 40.02 110.754 40.02C110.096 40.02 109.513 40.305 109.006 40.875C108.5 41.445 108.246 42.2493 108.246 43.288V48H106.612ZM117.454 48.19C116.023 48.19 114.832 47.715 113.882 46.765C112.945 45.8023 112.476 44.6307 112.476 43.25C112.476 41.8693 112.945 40.704 113.882 39.754C114.832 38.7913 116.023 38.31 117.454 38.31C118.873 38.31 120.051 38.7913 120.988 39.754C121.938 40.704 122.413 41.8693 122.413 43.25C122.413 44.6307 121.938 45.8023 120.988 46.765C120.051 47.715 118.873 48.19 117.454 48.19ZM115.06 45.682C115.681 46.3407 116.479 46.67 117.454 46.67C118.43 46.67 119.221 46.3407 119.829 45.682C120.437 45.0233 120.741 44.2127 120.741 43.25C120.741 42.2873 120.437 41.4767 119.829 40.818C119.221 40.1593 118.43 39.83 117.454 39.83C116.479 39.83 115.681 40.1593 115.06 40.818C114.452 41.4767 114.148 42.2873 114.148 43.25C114.148 44.2127 114.452 45.0233 115.06 45.682ZM128.673 48.19C127.355 48.19 126.247 47.7087 125.348 46.746C124.461 45.7833 124.018 44.618 124.018 43.25C124.018 41.882 124.461 40.7167 125.348 39.754C126.247 38.7913 127.355 38.31 128.673 38.31C129.369 38.31 130.015 38.4683 130.611 38.785C131.219 39.089 131.687 39.4817 132.017 39.963V33.75H133.651V48H132.017V46.537C131.687 47.0183 131.219 47.4173 130.611 47.734C130.015 48.038 129.369 48.19 128.673 48.19ZM128.92 46.689C129.857 46.689 130.63 46.3597 131.238 45.701C131.846 45.0423 132.15 44.2253 132.15 43.25C132.15 42.2747 131.846 41.4577 131.238 40.799C130.63 40.1403 129.857 39.811 128.92 39.811C127.97 39.811 127.191 40.1403 126.583 40.799C125.975 41.4577 125.671 42.2747 125.671 43.25C125.671 44.2253 125.975 45.0423 126.583 45.701C127.191 46.3597 127.97 46.689 128.92 46.689ZM140.09 48.19C139.051 48.19 138.209 47.8417 137.562 47.145C136.917 46.4357 136.594 45.4983 136.594 44.333V38.5H138.228V44.086C138.228 44.884 138.418 45.5173 138.798 45.986C139.19 46.4547 139.716 46.689 140.375 46.689C141.135 46.689 141.762 46.3787 142.256 45.758C142.762 45.1247 143.016 44.276 143.016 43.212V38.5H144.65V48H143.016V46.537C142.395 47.639 141.42 48.19 140.09 48.19ZM151.947 48.19C150.516 48.19 149.332 47.715 148.394 46.765C147.457 45.8023 146.988 44.6307 146.988 43.25C146.988 41.8693 147.457 40.704 148.394 39.754C149.332 38.7913 150.516 38.31 151.947 38.31C153.125 38.31 154.145 38.6393 155.006 39.298C155.868 39.944 156.444 40.7927 156.735 41.844H154.987C154.759 41.2233 154.379 40.7293 153.847 40.362C153.315 39.9947 152.682 39.811 151.947 39.811C150.972 39.811 150.174 40.1403 149.553 40.799C148.945 41.4577 148.641 42.2747 148.641 43.25C148.641 44.2253 148.945 45.0423 149.553 45.701C150.174 46.3597 150.972 46.689 151.947 46.689C152.682 46.689 153.315 46.5053 153.847 46.138C154.379 45.7707 154.759 45.2767 154.987 44.656H156.735C156.457 45.7073 155.887 46.5623 155.025 47.221C154.164 47.867 153.138 48.19 151.947 48.19ZM162.493 48.095C161.619 48.095 160.916 47.848 160.384 47.354C159.852 46.86 159.586 46.138 159.586 45.188V40.001H157.572V38.5H159.586V35.859H161.22V38.5H163.956V40.001H161.22V44.979C161.22 45.5743 161.346 45.9923 161.6 46.233C161.853 46.4737 162.252 46.594 162.797 46.594C163.278 46.594 163.664 46.5307 163.956 46.404V47.867C163.5 48.019 163.012 48.095 162.493 48.095ZM182.862 48V42.414C182.862 41.6287 182.697 41.0017 182.368 40.533C182.051 40.0517 181.589 39.811 180.981 39.811C180.221 39.811 179.6 40.1087 179.119 40.704C178.65 41.2993 178.403 42.11 178.378 43.136V48H176.744V42.414C176.744 41.616 176.579 40.9827 176.25 40.514C175.933 40.0453 175.477 39.811 174.882 39.811C174.097 39.811 173.463 40.1277 172.982 40.761C172.501 41.3817 172.26 42.224 172.26 43.288V48H170.626V38.5H172.26V39.963C172.868 38.861 173.824 38.31 175.129 38.31C176.573 38.31 177.548 38.9877 178.055 40.343C178.308 39.7223 178.714 39.2283 179.271 38.861C179.828 38.4937 180.462 38.31 181.171 38.31C182.197 38.31 183.008 38.6583 183.603 39.355C184.198 40.0517 184.496 40.989 184.496 42.167V48H182.862ZM191.35 48.19C190.033 48.19 188.925 47.7087 188.025 46.746C187.139 45.7833 186.695 44.618 186.695 43.25C186.695 41.882 187.139 40.7167 188.025 39.754C188.925 38.7913 190.033 38.31 191.35 38.31C192.047 38.31 192.693 38.4683 193.288 38.785C193.896 39.089 194.365 39.4817 194.694 39.963V38.5H196.328V48H194.694V46.537C194.365 47.0183 193.896 47.4173 193.288 47.734C192.693 48.038 192.047 48.19 191.35 48.19ZM191.597 46.689C192.535 46.689 193.307 46.3597 193.915 45.701C194.523 45.0423 194.827 44.2253 194.827 43.25C194.827 42.2747 194.523 41.4577 193.915 40.799C193.307 40.1403 192.535 39.811 191.597 39.811C190.647 39.811 189.868 40.1403 189.26 40.799C188.652 41.4577 188.348 42.2747 188.348 43.25C188.348 44.2253 188.652 45.0423 189.26 45.701C189.868 46.3597 190.647 46.689 191.597 46.689ZM199.404 48V38.5H201.038V39.963C201.684 38.861 202.691 38.31 204.059 38.31C205.136 38.31 206.004 38.6583 206.662 39.355C207.321 40.0517 207.65 40.9827 207.65 42.148V48H206.035V42.395C206.035 41.597 205.833 40.97 205.427 40.514C205.022 40.0453 204.477 39.811 203.793 39.811C203.008 39.811 202.349 40.1213 201.817 40.742C201.298 41.3627 201.038 42.2113 201.038 43.288V48H199.404ZM214.507 48.19C213.189 48.19 212.081 47.7087 211.182 46.746C210.295 45.7833 209.852 44.618 209.852 43.25C209.852 41.882 210.295 40.7167 211.182 39.754C212.081 38.7913 213.189 38.31 214.507 38.31C215.203 38.31 215.849 38.4683 216.445 38.785C217.053 39.089 217.521 39.4817 217.851 39.963V38.5H219.485V48H217.851V46.537C217.521 47.0183 217.053 47.4173 216.445 47.734C215.849 48.038 215.203 48.19 214.507 48.19ZM214.754 46.689C215.691 46.689 216.464 46.3597 217.072 45.701C217.68 45.0423 217.984 44.2253 217.984 43.25C217.984 42.2747 217.68 41.4577 217.072 40.799C216.464 40.1403 215.691 39.811 214.754 39.811C213.804 39.811 213.025 40.1403 212.417 40.799C211.809 41.4577 211.505 42.2747 211.505 43.25C211.505 44.2253 211.809 45.0423 212.417 45.701C213.025 46.3597 213.804 46.689 214.754 46.689ZM226.74 52.161C225.486 52.161 224.441 51.8507 223.605 51.23C222.782 50.622 222.294 49.8367 222.142 48.874H223.738C224.156 50.1027 225.17 50.717 226.778 50.717C227.678 50.717 228.4 50.4257 228.944 49.843C229.502 49.273 229.78 48.4687 229.78 47.43V46.309C229.438 46.8157 228.976 47.221 228.393 47.525C227.811 47.829 227.171 47.981 226.474 47.981C225.144 47.981 224.036 47.5187 223.149 46.594C222.263 45.6567 221.819 44.504 221.819 43.136C221.819 41.7807 222.263 40.6407 223.149 39.716C224.049 38.7787 225.157 38.31 226.474 38.31C227.171 38.31 227.811 38.462 228.393 38.766C228.976 39.07 229.438 39.469 229.78 39.963V38.5H231.414V47.411C231.414 48.931 230.971 50.1027 230.084 50.926C229.21 51.7493 228.096 52.161 226.74 52.161ZM224.384 45.53C224.98 46.1507 225.752 46.461 226.702 46.461C227.652 46.461 228.425 46.1507 229.02 45.53C229.616 44.8967 229.913 44.0987 229.913 43.136C229.913 42.1733 229.609 41.3817 229.001 40.761C228.406 40.1277 227.64 39.811 226.702 39.811C225.765 39.811 224.992 40.1277 224.384 40.761C223.789 41.3817 223.491 42.1733 223.491 43.136C223.491 44.0987 223.789 44.8967 224.384 45.53ZM238.538 48.19C237.157 48.19 236.011 47.7213 235.099 46.784C234.2 45.8467 233.75 44.6687 233.75 43.25C233.75 41.8187 234.187 40.6407 235.061 39.716C235.948 38.7787 237.119 38.31 238.576 38.31C240.045 38.31 241.198 38.8293 242.034 39.868C242.87 40.9067 243.237 42.1797 243.136 43.687H235.403C235.428 44.5483 235.745 45.2703 236.353 45.853C236.961 46.423 237.696 46.708 238.557 46.708C239.849 46.708 240.767 46.176 241.312 45.112H242.984C242.743 45.9987 242.23 46.7333 241.445 47.316C240.66 47.8987 239.691 48.19 238.538 48.19ZM240.4 40.438C239.881 39.982 239.254 39.754 238.519 39.754C237.784 39.754 237.126 39.9757 236.543 40.419C235.973 40.8623 235.618 41.521 235.479 42.395H241.407C241.255 41.5337 240.919 40.8813 240.4 40.438ZM245.494 48V38.5H247.128V40.343C247.305 39.7603 247.647 39.2917 248.154 38.937C248.673 38.5823 249.218 38.405 249.788 38.405C250.067 38.405 250.314 38.4303 250.529 38.481V40.172C250.301 40.0707 250.003 40.02 249.636 40.02C248.977 40.02 248.395 40.305 247.888 40.875C247.381 41.445 247.128 42.2493 247.128 43.288V48H245.494Z" fill="white"/>
<rect x="41" y="82" width="263" height="49" rx="24.5" fill="#E6F156"/>
<path d="M148.608 112.19C147.29 112.19 146.182 111.709 145.283 110.746C144.396 109.783 143.953 108.618 143.953 107.25C143.953 105.882 144.396 104.717 145.283 103.754C146.182 102.791 147.29 102.31 148.608 102.31C149.304 102.31 149.95 102.468 150.546 102.785C151.154 103.089 151.622 103.482 151.952 103.963V97.75H153.586V112H151.952V110.537C151.622 111.018 151.154 111.417 150.546 111.734C149.95 112.038 149.304 112.19 148.608 112.19ZM148.855 110.689C149.792 110.689 150.565 110.36 151.173 109.701C151.781 109.042 152.085 108.225 152.085 107.25C152.085 106.275 151.781 105.458 151.173 104.799C150.565 104.14 149.792 103.811 148.855 103.811C147.905 103.811 147.126 104.14 146.518 104.799C145.91 105.458 145.606 106.275 145.606 107.25C145.606 108.225 145.91 109.042 146.518 109.701C147.126 110.36 147.905 110.689 148.855 110.689ZM160.709 112.19C159.328 112.19 158.182 111.721 157.27 110.784C156.37 109.847 155.921 108.669 155.921 107.25C155.921 105.819 156.358 104.641 157.232 103.716C158.118 102.779 159.29 102.31 160.747 102.31C162.216 102.31 163.369 102.829 164.205 103.868C165.041 104.907 165.408 106.18 165.307 107.687H157.574C157.599 108.548 157.916 109.27 158.524 109.853C159.132 110.423 159.866 110.708 160.728 110.708C162.02 110.708 162.938 110.176 163.483 109.112H165.155C164.914 109.999 164.401 110.733 163.616 111.316C162.83 111.899 161.861 112.19 160.709 112.19ZM162.571 104.438C162.051 103.982 161.424 103.754 160.69 103.754C159.955 103.754 159.296 103.976 158.714 104.419C158.144 104.862 157.789 105.521 157.65 106.395H163.578C163.426 105.534 163.09 104.881 162.571 104.438ZM170.723 112.19C169.659 112.19 168.766 111.93 168.044 111.411C167.335 110.892 166.942 110.17 166.866 109.245H168.538C168.64 109.777 168.893 110.17 169.298 110.423C169.716 110.676 170.198 110.803 170.742 110.803C171.287 110.803 171.724 110.695 172.053 110.48C172.395 110.265 172.566 109.954 172.566 109.549C172.566 109.169 172.44 108.859 172.186 108.618C171.946 108.377 171.547 108.181 170.989 108.029L169.621 107.668C167.987 107.237 167.17 106.306 167.17 104.875C167.17 104.102 167.474 103.482 168.082 103.013C168.703 102.544 169.495 102.31 170.457 102.31C171.433 102.31 172.231 102.57 172.851 103.089C173.485 103.596 173.839 104.242 173.915 105.027H172.281C172.155 104.609 171.927 104.28 171.597 104.039C171.281 103.798 170.901 103.678 170.457 103.678C169.989 103.678 169.596 103.786 169.279 104.001C168.975 104.216 168.823 104.501 168.823 104.856C168.823 105.198 168.937 105.477 169.165 105.692C169.393 105.907 169.761 106.085 170.267 106.224L171.787 106.623C173.409 107.028 174.219 107.966 174.219 109.435C174.219 110.347 173.896 111.037 173.25 111.506C172.604 111.962 171.762 112.19 170.723 112.19ZM178.187 99.631C177.971 99.8463 177.699 99.954 177.37 99.954C177.04 99.954 176.762 99.8463 176.534 99.631C176.306 99.403 176.192 99.1243 176.192 98.795C176.192 98.4783 176.306 98.206 176.534 97.978C176.762 97.75 177.04 97.636 177.37 97.636C177.699 97.636 177.971 97.75 178.187 97.978C178.402 98.206 178.51 98.4783 178.51 98.795C178.51 99.1243 178.402 99.403 178.187 99.631ZM176.534 112V102.5H178.168V112H176.534ZM185.445 116.161C184.191 116.161 183.146 115.851 182.31 115.23C181.487 114.622 180.999 113.837 180.847 112.874H182.443C182.861 114.103 183.874 114.717 185.483 114.717C186.382 114.717 187.104 114.426 187.649 113.843C188.206 113.273 188.485 112.469 188.485 111.43V110.309C188.143 110.816 187.681 111.221 187.098 111.525C186.515 111.829 185.876 111.981 185.179 111.981C183.849 111.981 182.741 111.519 181.854 110.594C180.967 109.657 180.524 108.504 180.524 107.136C180.524 105.781 180.967 104.641 181.854 103.716C182.753 102.779 183.862 102.31 185.179 102.31C185.876 102.31 186.515 102.462 187.098 102.766C187.681 103.07 188.143 103.469 188.485 103.963V102.5H190.119V111.411C190.119 112.931 189.676 114.103 188.789 114.926C187.915 115.749 186.8 116.161 185.445 116.161ZM183.089 109.53C183.684 110.151 184.457 110.461 185.407 110.461C186.357 110.461 187.13 110.151 187.725 109.53C188.32 108.897 188.618 108.099 188.618 107.136C188.618 106.173 188.314 105.382 187.706 104.761C187.111 104.128 186.344 103.811 185.407 103.811C184.47 103.811 183.697 104.128 183.089 104.761C182.494 105.382 182.196 106.173 182.196 107.136C182.196 108.099 182.494 108.897 183.089 109.53ZM193.196 112V102.5H194.83V103.963C195.476 102.861 196.483 102.31 197.851 102.31C198.927 102.31 199.795 102.658 200.454 103.355C201.112 104.052 201.442 104.983 201.442 106.148V112H199.827V106.395C199.827 105.597 199.624 104.97 199.219 104.514C198.813 104.045 198.269 103.811 197.585 103.811C196.799 103.811 196.141 104.121 195.609 104.742C195.089 105.363 194.83 106.211 194.83 107.288V112H193.196Z" fill="#3C3D3D"/>
<rect x="41" y="146" width="263" height="49" rx="24.5" fill="#3C3D3D"/>
<path d="M119.872 177L117.516 170.179L115.179 177H113.735L110.505 167.5H112.215L114.514 174.435L116.889 167.5H118.143L120.518 174.435L122.817 167.5H124.546L121.316 177H119.872ZM130.317 177.19C128.936 177.19 127.79 176.721 126.878 175.784C125.979 174.847 125.529 173.669 125.529 172.25C125.529 170.819 125.966 169.641 126.84 168.716C127.727 167.779 128.898 167.31 130.355 167.31C131.824 167.31 132.977 167.829 133.813 168.868C134.649 169.907 135.016 171.18 134.915 172.687H127.182C127.207 173.548 127.524 174.27 128.132 174.853C128.74 175.423 129.475 175.708 130.336 175.708C131.628 175.708 132.546 175.176 133.091 174.112H134.763C134.522 174.999 134.009 175.733 133.224 176.316C132.439 176.899 131.47 177.19 130.317 177.19ZM132.179 169.438C131.66 168.982 131.033 168.754 130.298 168.754C129.563 168.754 128.905 168.976 128.322 169.419C127.752 169.862 127.397 170.521 127.258 171.395H133.186C133.034 170.534 132.698 169.881 132.179 169.438ZM142.251 177.19C141.554 177.19 140.902 177.038 140.294 176.734C139.699 176.417 139.236 176.018 138.907 175.537V177H137.273V162.75H138.907V168.963C139.236 168.482 139.699 168.089 140.294 167.785C140.902 167.468 141.554 167.31 142.251 167.31C143.568 167.31 144.67 167.791 145.557 168.754C146.456 169.717 146.906 170.882 146.906 172.25C146.906 173.618 146.456 174.783 145.557 175.746C144.67 176.709 143.568 177.19 142.251 177.19ZM139.686 174.701C140.294 175.36 141.067 175.689 142.004 175.689C142.941 175.689 143.714 175.36 144.322 174.701C144.93 174.042 145.234 173.225 145.234 172.25C145.234 171.275 144.93 170.458 144.322 169.799C143.714 169.14 142.941 168.811 142.004 168.811C141.067 168.811 140.294 169.14 139.686 169.799C139.078 170.458 138.774 171.275 138.774 172.25C138.774 173.225 139.078 174.042 139.686 174.701ZM155.458 180.971H153.824V167.5H155.458V168.963C155.787 168.482 156.249 168.089 156.845 167.785C157.453 167.468 158.105 167.31 158.802 167.31C160.119 167.31 161.221 167.791 162.108 168.754C163.007 169.717 163.457 170.882 163.457 172.25C163.457 173.618 163.007 174.783 162.108 175.746C161.221 176.709 160.119 177.19 158.802 177.19C158.105 177.19 157.453 177.038 156.845 176.734C156.249 176.417 155.787 176.018 155.458 175.537V180.971ZM156.237 174.701C156.845 175.36 157.617 175.689 158.555 175.689C159.492 175.689 160.265 175.36 160.873 174.701C161.481 174.042 161.785 173.225 161.785 172.25C161.785 171.275 161.481 170.458 160.873 169.799C160.265 169.14 159.492 168.811 158.555 168.811C157.617 168.811 156.845 169.14 156.237 169.799C155.629 170.458 155.325 171.275 155.325 172.25C155.325 173.225 155.629 174.042 156.237 174.701ZM169.173 177.19C168.134 177.19 167.292 176.842 166.646 176.145C166 175.436 165.677 174.498 165.677 173.333V167.5H167.311V173.086C167.311 173.884 167.501 174.517 167.881 174.986C168.274 175.455 168.799 175.689 169.458 175.689C170.218 175.689 170.845 175.379 171.339 174.758C171.846 174.125 172.099 173.276 172.099 172.212V167.5H173.733V177H172.099V175.537C171.478 176.639 170.503 177.19 169.173 177.19ZM181.791 177.19C181.094 177.19 180.442 177.038 179.834 176.734C179.239 176.417 178.776 176.018 178.447 175.537V177H176.813V162.75H178.447V168.963C178.776 168.482 179.239 168.089 179.834 167.785C180.442 167.468 181.094 167.31 181.791 167.31C183.108 167.31 184.21 167.791 185.097 168.754C185.996 169.717 186.446 170.882 186.446 172.25C186.446 173.618 185.996 174.783 185.097 175.746C184.21 176.709 183.108 177.19 181.791 177.19ZM179.226 174.701C179.834 175.36 180.607 175.689 181.544 175.689C182.481 175.689 183.254 175.36 183.862 174.701C184.47 174.042 184.774 173.225 184.774 172.25C184.774 171.275 184.47 170.458 183.862 169.799C183.254 169.14 182.481 168.811 181.544 168.811C180.607 168.811 179.834 169.14 179.226 169.799C178.618 170.458 178.314 171.275 178.314 172.25C178.314 173.225 178.618 174.042 179.226 174.701ZM188.781 177V162.75H190.415V177H188.781ZM195.165 164.631C194.95 164.846 194.677 164.954 194.348 164.954C194.019 164.954 193.74 164.846 193.512 164.631C193.284 164.403 193.17 164.124 193.17 163.795C193.17 163.478 193.284 163.206 193.512 162.978C193.74 162.75 194.019 162.636 194.348 162.636C194.677 162.636 194.95 162.75 195.165 162.978C195.38 163.206 195.488 163.478 195.488 163.795C195.488 164.124 195.38 164.403 195.165 164.631ZM193.512 177V167.5H195.146V177H193.512ZM201.303 177.19C200.239 177.19 199.346 176.93 198.624 176.411C197.914 175.892 197.522 175.17 197.446 174.245H199.118C199.219 174.777 199.472 175.17 199.878 175.423C200.296 175.676 200.777 175.803 201.322 175.803C201.866 175.803 202.303 175.695 202.633 175.48C202.975 175.265 203.146 174.954 203.146 174.549C203.146 174.169 203.019 173.859 202.766 173.618C202.525 173.377 202.126 173.181 201.569 173.029L200.201 172.668C198.567 172.237 197.75 171.306 197.75 169.875C197.75 169.102 198.054 168.482 198.662 168.013C199.282 167.544 200.074 167.31 201.037 167.31C202.012 167.31 202.81 167.57 203.431 168.089C204.064 168.596 204.419 169.242 204.495 170.027H202.861C202.734 169.609 202.506 169.28 202.177 169.039C201.86 168.798 201.48 168.678 201.037 168.678C200.568 168.678 200.175 168.786 199.859 169.001C199.555 169.216 199.403 169.501 199.403 169.856C199.403 170.198 199.517 170.477 199.745 170.692C199.973 170.907 200.34 171.085 200.847 171.224L202.367 171.623C203.988 172.028 204.799 172.966 204.799 174.435C204.799 175.347 204.476 176.037 203.83 176.506C203.184 176.962 202.341 177.19 201.303 177.19ZM208.747 177H207.113V162.75H208.747V168.963C209.393 167.861 210.4 167.31 211.768 167.31C212.844 167.31 213.712 167.658 214.371 168.355C215.029 169.052 215.359 169.983 215.359 171.148V177H213.744V171.395C213.744 170.597 213.541 169.97 213.136 169.514C212.73 169.045 212.186 168.811 211.502 168.811C210.716 168.811 210.058 169.121 209.526 169.742C209.006 170.363 208.747 171.211 208.747 172.288V177ZM222.348 177.19C220.968 177.19 219.821 176.721 218.909 175.784C218.01 174.847 217.56 173.669 217.56 172.25C217.56 170.819 217.997 169.641 218.871 168.716C219.758 167.779 220.93 167.31 222.386 167.31C223.856 167.31 225.008 167.829 225.844 168.868C226.68 169.907 227.048 171.18 226.946 172.687H219.213C219.239 173.548 219.555 174.27 220.163 174.853C220.771 175.423 221.506 175.708 222.367 175.708C223.659 175.708 224.578 175.176 225.122 174.112H226.794C226.554 174.999 226.041 175.733 225.255 176.316C224.47 176.899 223.501 177.19 222.348 177.19ZM224.21 169.438C223.691 168.982 223.064 168.754 222.329 168.754C221.595 168.754 220.936 168.976 220.353 169.419C219.783 169.862 219.429 170.521 219.289 171.395H225.217C225.065 170.534 224.73 169.881 224.21 169.438ZM229.304 177V167.5H230.938V169.343C231.115 168.76 231.457 168.292 231.964 167.937C232.483 167.582 233.028 167.405 233.598 167.405C233.877 167.405 234.124 167.43 234.339 167.481V169.172C234.111 169.071 233.813 169.02 233.446 169.02C232.787 169.02 232.205 169.305 231.698 169.875C231.191 170.445 230.938 171.249 230.938 172.288V177H229.304Z" fill="#E6F156"/>
</svg>
