<svg width="991" height="70" viewBox="0 0 991 70" fill="none" xmlns="http://www.w3.org/2000/svg">
<path opacity="0.5" d="M0 35H991" stroke="#FA2E2E" stroke-width="0.5" stroke-dasharray="4 4"/>
<path opacity="0.5" d="M0 11H991" stroke="black" stroke-width="0.5" stroke-dasharray="4 4"/>
<path opacity="0.5" d="M0 58H991" stroke="black" stroke-width="0.5" stroke-dasharray="4 4"/>
<rect x="108" y="10" width="263" height="49" rx="24.5" fill="#AEA6D2"/>
<rect x="620" y="10" width="263" height="49" rx="24.5" fill="#3C3D3D"/>
<path d="M165.255 44.971H163.621V31.5H165.255V32.963C165.584 32.4817 166.047 32.089 166.642 31.785C167.25 31.4683 167.902 31.31 168.599 31.31C169.916 31.31 171.018 31.7913 171.905 32.754C172.804 33.7167 173.254 34.882 173.254 36.25C173.254 37.618 172.804 38.7833 171.905 39.746C171.018 40.7087 169.916 41.19 168.599 41.19C167.902 41.19 167.25 41.038 166.642 40.734C166.047 40.4173 165.584 40.0183 165.255 39.537V44.971ZM166.034 38.701C166.642 39.3597 167.415 39.689 168.352 39.689C169.289 39.689 170.062 39.3597 170.67 38.701C171.278 38.0423 171.582 37.2253 171.582 36.25C171.582 35.2747 171.278 34.4577 170.67 33.799C170.062 33.1403 169.289 32.811 168.352 32.811C167.415 32.811 166.642 33.1403 166.034 33.799C165.426 34.4577 165.122 35.2747 165.122 36.25C165.122 37.2253 165.426 38.0423 166.034 38.701ZM175.322 41V31.5H176.956V33.343C177.134 32.7603 177.476 32.2917 177.982 31.937C178.502 31.5823 179.046 31.405 179.616 31.405C179.895 31.405 180.142 31.4303 180.357 31.481V33.172C180.129 33.0707 179.832 33.02 179.464 33.02C178.806 33.02 178.223 33.305 177.716 33.875C177.21 34.445 176.956 35.2493 176.956 36.288V41H175.322ZM185.879 41.19C184.448 41.19 183.257 40.715 182.307 39.765C181.37 38.8023 180.901 37.6307 180.901 36.25C180.901 34.8693 181.37 33.704 182.307 32.754C183.257 31.7913 184.448 31.31 185.879 31.31C187.298 31.31 188.476 31.7913 189.413 32.754C190.363 33.704 190.838 34.8693 190.838 36.25C190.838 37.6307 190.363 38.8023 189.413 39.765C188.476 40.715 187.298 41.19 185.879 41.19ZM183.485 38.682C184.106 39.3407 184.904 39.67 185.879 39.67C186.855 39.67 187.646 39.3407 188.254 38.682C188.862 38.0233 189.166 37.2127 189.166 36.25C189.166 35.2873 188.862 34.4767 188.254 33.818C187.646 33.1593 186.855 32.83 185.879 32.83C184.904 32.83 184.106 33.1593 183.485 33.818C182.877 34.4767 182.573 35.2873 182.573 36.25C182.573 37.2127 182.877 38.0233 183.485 38.682ZM196.813 41.19C195.495 41.19 194.387 40.7087 193.488 39.746C192.601 38.7833 192.158 37.618 192.158 36.25C192.158 34.882 192.601 33.7167 193.488 32.754C194.387 31.7913 195.495 31.31 196.813 31.31C197.509 31.31 198.155 31.4683 198.751 31.785C199.359 32.089 199.827 32.4817 200.157 32.963V26.75H201.791V41H200.157V39.537C199.827 40.0183 199.359 40.4173 198.751 40.734C198.155 41.038 197.509 41.19 196.813 41.19ZM197.06 39.689C197.997 39.689 198.77 39.3597 199.378 38.701C199.986 38.0423 200.29 37.2253 200.29 36.25C200.29 35.2747 199.986 34.4577 199.378 33.799C198.77 33.1403 197.997 32.811 197.06 32.811C196.11 32.811 195.331 33.1403 194.723 33.799C194.115 34.4577 193.811 35.2747 193.811 36.25C193.811 37.2253 194.115 38.0423 194.723 38.701C195.331 39.3597 196.11 39.689 197.06 39.689ZM207.945 41.19C206.906 41.19 206.064 40.8417 205.418 40.145C204.772 39.4357 204.449 38.4983 204.449 37.333V31.5H206.083V37.086C206.083 37.884 206.273 38.5173 206.653 38.986C207.045 39.4547 207.571 39.689 208.23 39.689C208.99 39.689 209.617 39.3787 210.111 38.758C210.617 38.1247 210.871 37.276 210.871 36.212V31.5H212.505V41H210.871V39.537C210.25 40.639 209.275 41.19 207.945 41.19ZM219.517 41.19C218.086 41.19 216.902 40.715 215.964 39.765C215.027 38.8023 214.558 37.6307 214.558 36.25C214.558 34.8693 215.027 33.704 215.964 32.754C216.902 31.7913 218.086 31.31 219.517 31.31C220.695 31.31 221.715 31.6393 222.576 32.298C223.438 32.944 224.014 33.7927 224.305 34.844H222.557C222.329 34.2233 221.949 33.7293 221.417 33.362C220.885 32.9947 220.252 32.811 219.517 32.811C218.542 32.811 217.744 33.1403 217.123 33.799C216.515 34.4577 216.211 35.2747 216.211 36.25C216.211 37.2253 216.515 38.0423 217.123 38.701C217.744 39.3597 218.542 39.689 219.517 39.689C220.252 39.689 220.885 39.5053 221.417 39.138C221.949 38.7707 222.329 38.2767 222.557 37.656H224.305C224.027 38.7073 223.457 39.5623 222.595 40.221C221.734 40.867 220.708 41.19 219.517 41.19ZM229.778 41.095C228.904 41.095 228.201 40.848 227.669 40.354C227.137 39.86 226.871 39.138 226.871 38.188V33.001H224.857V31.5H226.871V28.859H228.505V31.5H231.241V33.001H228.505V37.979C228.505 38.5743 228.631 38.9923 228.885 39.233C229.138 39.4737 229.537 39.594 230.082 39.594C230.563 39.594 230.949 39.5307 231.241 39.404V40.867C230.785 41.019 230.297 41.095 229.778 41.095ZM249.577 41V35.414C249.577 34.6287 249.412 34.0017 249.083 33.533C248.766 33.0517 248.304 32.811 247.696 32.811C246.936 32.811 246.315 33.1087 245.834 33.704C245.365 34.2993 245.118 35.11 245.093 36.136V41H243.459V35.414C243.459 34.616 243.294 33.9827 242.965 33.514C242.648 33.0453 242.192 32.811 241.597 32.811C240.812 32.811 240.178 33.1277 239.697 33.761C239.216 34.3817 238.975 35.224 238.975 36.288V41H237.341V31.5H238.975V32.963C239.583 31.861 240.539 31.31 241.844 31.31C243.288 31.31 244.263 31.9877 244.77 33.343C245.023 32.7223 245.429 32.2283 245.986 31.861C246.543 31.4937 247.177 31.31 247.886 31.31C248.912 31.31 249.723 31.6583 250.318 32.355C250.913 33.0517 251.211 33.989 251.211 35.167V41H249.577ZM257.78 41.19C256.463 41.19 255.355 40.7087 254.455 39.746C253.569 38.7833 253.125 37.618 253.125 36.25C253.125 34.882 253.569 33.7167 254.455 32.754C255.355 31.7913 256.463 31.31 257.78 31.31C258.477 31.31 259.123 31.4683 259.718 31.785C260.326 32.089 260.795 32.4817 261.124 32.963V31.5H262.758V41H261.124V39.537C260.795 40.0183 260.326 40.4173 259.718 40.734C259.123 41.038 258.477 41.19 257.78 41.19ZM258.027 39.689C258.965 39.689 259.737 39.3597 260.345 38.701C260.953 38.0423 261.257 37.2253 261.257 36.25C261.257 35.2747 260.953 34.4577 260.345 33.799C259.737 33.1403 258.965 32.811 258.027 32.811C257.077 32.811 256.298 33.1403 255.69 33.799C255.082 34.4577 254.778 35.2747 254.778 36.25C254.778 37.2253 255.082 38.0423 255.69 38.701C256.298 39.3597 257.077 39.689 258.027 39.689ZM265.549 41V31.5H267.183V32.963C267.829 31.861 268.836 31.31 270.204 31.31C271.281 31.31 272.149 31.6583 272.807 32.355C273.466 33.0517 273.795 33.9827 273.795 35.148V41H272.18V35.395C272.18 34.597 271.978 33.97 271.572 33.514C271.167 33.0453 270.622 32.811 269.938 32.811C269.153 32.811 268.494 33.1213 267.962 33.742C267.443 34.3627 267.183 35.2113 267.183 36.288V41H265.549ZM280.367 41.19C279.049 41.19 277.941 40.7087 277.042 39.746C276.155 38.7833 275.712 37.618 275.712 36.25C275.712 34.882 276.155 33.7167 277.042 32.754C277.941 31.7913 279.049 31.31 280.367 31.31C281.063 31.31 281.709 31.4683 282.305 31.785C282.913 32.089 283.381 32.4817 283.711 32.963V31.5H285.345V41H283.711V39.537C283.381 40.0183 282.913 40.4173 282.305 40.734C281.709 41.038 281.063 41.19 280.367 41.19ZM280.614 39.689C281.551 39.689 282.324 39.3597 282.932 38.701C283.54 38.0423 283.844 37.2253 283.844 36.25C283.844 35.2747 283.54 34.4577 282.932 33.799C282.324 33.1403 281.551 32.811 280.614 32.811C279.664 32.811 278.885 33.1403 278.277 33.799C277.669 34.4577 277.365 35.2747 277.365 36.25C277.365 37.2253 277.669 38.0423 278.277 38.701C278.885 39.3597 279.664 39.689 280.614 39.689ZM292.315 45.161C291.061 45.161 290.016 44.8507 289.18 44.23C288.357 43.622 287.869 42.8367 287.717 41.874H289.313C289.731 43.1027 290.745 43.717 292.353 43.717C293.253 43.717 293.975 43.4257 294.519 42.843C295.077 42.273 295.355 41.4687 295.355 40.43V39.309C295.013 39.8157 294.551 40.221 293.968 40.525C293.386 40.829 292.746 40.981 292.049 40.981C290.719 40.981 289.611 40.5187 288.724 39.594C287.838 38.6567 287.394 37.504 287.394 36.136C287.394 34.7807 287.838 33.6407 288.724 32.716C289.624 31.7787 290.732 31.31 292.049 31.31C292.746 31.31 293.386 31.462 293.968 31.766C294.551 32.07 295.013 32.469 295.355 32.963V31.5H296.989V40.411C296.989 41.931 296.546 43.1027 295.659 43.926C294.785 44.7493 293.671 45.161 292.315 45.161ZM289.959 38.53C290.555 39.1507 291.327 39.461 292.277 39.461C293.227 39.461 294 39.1507 294.595 38.53C295.191 37.8967 295.488 37.0987 295.488 36.136C295.488 35.1733 295.184 34.3817 294.576 33.761C293.981 33.1277 293.215 32.811 292.277 32.811C291.34 32.811 290.567 33.1277 289.959 33.761C289.364 34.3817 289.066 35.1733 289.066 36.136C289.066 37.0987 289.364 37.8967 289.959 38.53ZM303.828 41.19C302.447 41.19 301.301 40.7213 300.389 39.784C299.49 38.8467 299.04 37.6687 299.04 36.25C299.04 34.8187 299.477 33.6407 300.351 32.716C301.238 31.7787 302.409 31.31 303.866 31.31C305.335 31.31 306.488 31.8293 307.324 32.868C308.16 33.9067 308.527 35.1797 308.426 36.687H300.693C300.718 37.5483 301.035 38.2703 301.643 38.853C302.251 39.423 302.986 39.708 303.847 39.708C305.139 39.708 306.057 39.176 306.602 38.112H308.274C308.033 38.9987 307.52 39.7333 306.735 40.316C305.95 40.8987 304.981 41.19 303.828 41.19ZM305.69 33.438C305.171 32.982 304.544 32.754 303.809 32.754C303.074 32.754 302.416 32.9757 301.833 33.419C301.263 33.8623 300.908 34.521 300.769 35.395H306.697C306.545 34.5337 306.209 33.8813 305.69 33.438ZM310.499 41V31.5H312.133V33.343C312.31 32.7603 312.652 32.2917 313.159 31.937C313.678 31.5823 314.223 31.405 314.793 31.405C315.072 31.405 315.319 31.4303 315.534 31.481V33.172C315.306 33.0707 315.008 33.02 314.641 33.02C313.982 33.02 313.4 33.305 312.893 33.875C312.386 34.445 312.133 35.2493 312.133 36.288V41H310.499Z" fill="white"/>
<path d="M700.082 41L697.726 34.179L695.389 41H693.945L690.715 31.5H692.425L694.724 38.435L697.099 31.5H698.353L700.728 38.435L703.027 31.5H704.756L701.526 41H700.082ZM710.242 41.19C708.861 41.19 707.715 40.7213 706.803 39.784C705.904 38.8467 705.454 37.6687 705.454 36.25C705.454 34.8187 705.891 33.6407 706.765 32.716C707.652 31.7787 708.823 31.31 710.28 31.31C711.749 31.31 712.902 31.8293 713.738 32.868C714.574 33.9067 714.941 35.1797 714.84 36.687H707.107C707.132 37.5483 707.449 38.2703 708.057 38.853C708.665 39.423 709.4 39.708 710.261 39.708C711.553 39.708 712.471 39.176 713.016 38.112H714.688C714.447 38.9987 713.934 39.7333 713.149 40.316C712.364 40.8987 711.395 41.19 710.242 41.19ZM712.104 33.438C711.585 32.982 710.958 32.754 710.223 32.754C709.488 32.754 708.83 32.9757 708.247 33.419C707.677 33.8623 707.322 34.521 707.183 35.395H713.111C712.959 34.5337 712.623 33.8813 712.104 33.438ZM721.891 41.19C721.194 41.19 720.542 41.038 719.934 40.734C719.339 40.4173 718.876 40.0183 718.547 39.537V41H716.913V26.75H718.547V32.963C718.876 32.4817 719.339 32.089 719.934 31.785C720.542 31.4683 721.194 31.31 721.891 31.31C723.208 31.31 724.31 31.7913 725.197 32.754C726.096 33.7167 726.546 34.882 726.546 36.25C726.546 37.618 726.096 38.7833 725.197 39.746C724.31 40.7087 723.208 41.19 721.891 41.19ZM719.326 38.701C719.934 39.3597 720.707 39.689 721.644 39.689C722.581 39.689 723.354 39.3597 723.962 38.701C724.57 38.0423 724.874 37.2253 724.874 36.25C724.874 35.2747 724.57 34.4577 723.962 33.799C723.354 33.1403 722.581 32.811 721.644 32.811C720.707 32.811 719.934 33.1403 719.326 33.799C718.718 34.4577 718.414 35.2747 718.414 36.25C718.414 37.2253 718.718 38.0423 719.326 38.701ZM734.528 44.971H732.894V31.5H734.528V32.963C734.857 32.4817 735.319 32.089 735.915 31.785C736.523 31.4683 737.175 31.31 737.872 31.31C739.189 31.31 740.291 31.7913 741.178 32.754C742.077 33.7167 742.527 34.882 742.527 36.25C742.527 37.618 742.077 38.7833 741.178 39.746C740.291 40.7087 739.189 41.19 737.872 41.19C737.175 41.19 736.523 41.038 735.915 40.734C735.319 40.4173 734.857 40.0183 734.528 39.537V44.971ZM735.307 38.701C735.915 39.3597 736.687 39.689 737.625 39.689C738.562 39.689 739.335 39.3597 739.943 38.701C740.551 38.0423 740.855 37.2253 740.855 36.25C740.855 35.2747 740.551 34.4577 739.943 33.799C739.335 33.1403 738.562 32.811 737.625 32.811C736.687 32.811 735.915 33.1403 735.307 33.799C734.699 34.4577 734.395 35.2747 734.395 36.25C734.395 37.2253 734.699 38.0423 735.307 38.701ZM747.958 41.19C746.919 41.19 746.077 40.8417 745.431 40.145C744.785 39.4357 744.462 38.4983 744.462 37.333V31.5H746.096V37.086C746.096 37.884 746.286 38.5173 746.666 38.986C747.059 39.4547 747.584 39.689 748.243 39.689C749.003 39.689 749.63 39.3787 750.124 38.758C750.631 38.1247 750.884 37.276 750.884 36.212V31.5H752.518V41H750.884V39.537C750.263 40.639 749.288 41.19 747.958 41.19ZM760.291 41.19C759.594 41.19 758.942 41.038 758.334 40.734C757.739 40.4173 757.276 40.0183 756.947 39.537V41H755.313V26.75H756.947V32.963C757.276 32.4817 757.739 32.089 758.334 31.785C758.942 31.4683 759.594 31.31 760.291 31.31C761.608 31.31 762.71 31.7913 763.597 32.754C764.496 33.7167 764.946 34.882 764.946 36.25C764.946 37.618 764.496 38.7833 763.597 39.746C762.71 40.7087 761.608 41.19 760.291 41.19ZM757.726 38.701C758.334 39.3597 759.107 39.689 760.044 39.689C760.981 39.689 761.754 39.3597 762.362 38.701C762.97 38.0423 763.274 37.2253 763.274 36.25C763.274 35.2747 762.97 34.4577 762.362 33.799C761.754 33.1403 760.981 32.811 760.044 32.811C759.107 32.811 758.334 33.1403 757.726 33.799C757.118 34.4577 756.814 35.2747 756.814 36.25C756.814 37.2253 757.118 38.0423 757.726 38.701ZM766.996 41V26.75H768.63V41H766.996ZM773.095 28.631C772.88 28.8463 772.607 28.954 772.278 28.954C771.949 28.954 771.67 28.8463 771.442 28.631C771.214 28.403 771.1 28.1243 771.1 27.795C771.1 27.4783 771.214 27.206 771.442 26.978C771.67 26.75 771.949 26.636 772.278 26.636C772.607 26.636 772.88 26.75 773.095 26.978C773.31 27.206 773.418 27.4783 773.418 27.795C773.418 28.1243 773.31 28.403 773.095 28.631ZM771.442 41V31.5H773.076V41H771.442ZM778.948 41.19C777.884 41.19 776.991 40.9303 776.269 40.411C775.559 39.8917 775.167 39.1697 775.091 38.245H776.763C776.864 38.777 777.117 39.1697 777.523 39.423C777.941 39.6763 778.422 39.803 778.967 39.803C779.511 39.803 779.948 39.6953 780.278 39.48C780.62 39.2647 780.791 38.9543 780.791 38.549C780.791 38.169 780.664 37.8587 780.411 37.618C780.17 37.3773 779.771 37.181 779.214 37.029L777.846 36.668C776.212 36.2373 775.395 35.3063 775.395 33.875C775.395 33.1023 775.699 32.4817 776.307 32.013C776.927 31.5443 777.719 31.31 778.682 31.31C779.657 31.31 780.455 31.5697 781.076 32.089C781.709 32.5957 782.064 33.2417 782.14 34.027H780.506C780.379 33.609 780.151 33.2797 779.822 33.039C779.505 32.7983 779.125 32.678 778.682 32.678C778.213 32.678 777.82 32.7857 777.504 33.001C777.2 33.2163 777.048 33.5013 777.048 33.856C777.048 34.198 777.162 34.4767 777.39 34.692C777.618 34.9073 777.985 35.0847 778.492 35.224L780.012 35.623C781.633 36.0283 782.444 36.9657 782.444 38.435C782.444 39.347 782.121 40.0373 781.475 40.506C780.829 40.962 779.986 41.19 778.948 41.19ZM786.107 41H784.473V26.75H786.107V32.963C786.753 31.861 787.76 31.31 789.128 31.31C790.204 31.31 791.072 31.6583 791.731 32.355C792.389 33.0517 792.719 33.9827 792.719 35.148V41H791.104V35.395C791.104 34.597 790.901 33.97 790.496 33.514C790.09 33.0453 789.546 32.811 788.862 32.811C788.076 32.811 787.418 33.1213 786.886 33.742C786.366 34.3627 786.107 35.2113 786.107 36.288V41ZM799.423 41.19C798.043 41.19 796.896 40.7213 795.984 39.784C795.085 38.8467 794.635 37.6687 794.635 36.25C794.635 34.8187 795.072 33.6407 795.946 32.716C796.833 31.7787 798.005 31.31 799.461 31.31C800.931 31.31 802.083 31.8293 802.919 32.868C803.755 33.9067 804.123 35.1797 804.021 36.687H796.288C796.314 37.5483 796.63 38.2703 797.238 38.853C797.846 39.423 798.581 39.708 799.442 39.708C800.734 39.708 801.653 39.176 802.197 38.112H803.869C803.629 38.9987 803.116 39.7333 802.33 40.316C801.545 40.8987 800.576 41.19 799.423 41.19ZM801.285 33.438C800.766 32.982 800.139 32.754 799.404 32.754C798.67 32.754 798.011 32.9757 797.428 33.419C796.858 33.8623 796.504 34.521 796.364 35.395H802.292C802.14 34.5337 801.805 33.8813 801.285 33.438ZM806.094 41V31.5H807.728V33.343C807.905 32.7603 808.247 32.2917 808.754 31.937C809.273 31.5823 809.818 31.405 810.388 31.405C810.667 31.405 810.914 31.4303 811.129 31.481V33.172C810.901 33.0707 810.603 33.02 810.236 33.02C809.577 33.02 808.995 33.305 808.488 33.875C807.981 34.445 807.728 35.2493 807.728 36.288V41H806.094Z" fill="#E6F156"/>
<path opacity="0.5" d="M108 0L108 70" stroke="black" stroke-width="0.5" stroke-dasharray="4 4"/>
<path opacity="0.5" d="M371 0L371 70" stroke="black" stroke-width="0.5" stroke-dasharray="4 4"/>
<path opacity="0.5" d="M391 0L391 70" stroke="black" stroke-width="0.5" stroke-dasharray="4 4"/>
<path opacity="0.5" d="M600 0L600 70" stroke="black" stroke-width="0.5" stroke-dasharray="4 4"/>
<path opacity="0.5" d="M620 0L620 70" stroke="black" stroke-width="0.5" stroke-dasharray="4 4"/>
<path opacity="0.5" d="M883 0L883 70" stroke="black" stroke-width="0.5" stroke-dasharray="4 4"/>
<rect x="391" y="10" width="209" height="49" rx="24.5" fill="#E6F156"/>
<path d="M472.82 39.19C471.503 39.19 470.395 38.7087 469.495 37.746C468.609 36.7833 468.165 35.618 468.165 34.25C468.165 32.882 468.609 31.7167 469.495 30.754C470.395 29.7913 471.503 29.31 472.82 29.31C473.517 29.31 474.163 29.4683 474.758 29.785C475.366 30.089 475.835 30.4817 476.164 30.963V24.75H477.798V39H476.164V37.537C475.835 38.0183 475.366 38.4173 474.758 38.734C474.163 39.038 473.517 39.19 472.82 39.19ZM473.067 37.689C474.005 37.689 474.777 37.3597 475.385 36.701C475.993 36.0423 476.297 35.2253 476.297 34.25C476.297 33.2747 475.993 32.4577 475.385 31.799C474.777 31.1403 474.005 30.811 473.067 30.811C472.117 30.811 471.338 31.1403 470.73 31.799C470.122 32.4577 469.818 33.2747 469.818 34.25C469.818 35.2253 470.122 36.0423 470.73 36.701C471.338 37.3597 472.117 37.689 473.067 37.689ZM484.636 39.19C483.255 39.19 482.109 38.7213 481.197 37.784C480.298 36.8467 479.848 35.6687 479.848 34.25C479.848 32.8187 480.285 31.6407 481.159 30.716C482.046 29.7787 483.217 29.31 484.674 29.31C486.143 29.31 487.296 29.8293 488.132 30.868C488.968 31.9067 489.335 33.1797 489.234 34.687H481.501C481.526 35.5483 481.843 36.2703 482.451 36.853C483.059 37.423 483.794 37.708 484.655 37.708C485.947 37.708 486.865 37.176 487.41 36.112H489.082C488.841 36.9987 488.328 37.7333 487.543 38.316C486.758 38.8987 485.789 39.19 484.636 39.19ZM486.498 31.438C485.979 30.982 485.352 30.754 484.617 30.754C483.882 30.754 483.224 30.9757 482.641 31.419C482.071 31.8623 481.716 32.521 481.577 33.395H487.505C487.353 32.5337 487.017 31.8813 486.498 31.438ZM494.366 39.19C493.302 39.19 492.409 38.9303 491.687 38.411C490.978 37.8917 490.585 37.1697 490.509 36.245H492.181C492.282 36.777 492.536 37.1697 492.941 37.423C493.359 37.6763 493.84 37.803 494.385 37.803C494.93 37.803 495.367 37.6953 495.696 37.48C496.038 37.2647 496.209 36.9543 496.209 36.549C496.209 36.169 496.082 35.8587 495.829 35.618C495.588 35.3773 495.189 35.181 494.632 35.029L493.264 34.668C491.63 34.2373 490.813 33.3063 490.813 31.875C490.813 31.1023 491.117 30.4817 491.725 30.013C492.346 29.5443 493.137 29.31 494.1 29.31C495.075 29.31 495.873 29.5697 496.494 30.089C497.127 30.5957 497.482 31.2417 497.558 32.027H495.924C495.797 31.609 495.569 31.2797 495.24 31.039C494.923 30.7983 494.543 30.678 494.1 30.678C493.631 30.678 493.239 30.7857 492.922 31.001C492.618 31.2163 492.466 31.5013 492.466 31.856C492.466 32.198 492.58 32.4767 492.808 32.692C493.036 32.9073 493.403 33.0847 493.91 33.224L495.43 33.623C497.051 34.0283 497.862 34.9657 497.862 36.435C497.862 37.347 497.539 38.0373 496.893 38.506C496.247 38.962 495.405 39.19 494.366 39.19ZM501.544 26.631C501.329 26.8463 501.056 26.954 500.727 26.954C500.398 26.954 500.119 26.8463 499.891 26.631C499.663 26.403 499.549 26.1243 499.549 25.795C499.549 25.4783 499.663 25.206 499.891 24.978C500.119 24.75 500.398 24.636 500.727 24.636C501.056 24.636 501.329 24.75 501.544 24.978C501.759 25.206 501.867 25.4783 501.867 25.795C501.867 26.1243 501.759 26.403 501.544 26.631ZM499.891 39V29.5H501.525V39H499.891ZM508.518 43.161C507.264 43.161 506.219 42.8507 505.383 42.23C504.559 41.622 504.072 40.8367 503.92 39.874H505.516C505.934 41.1027 506.947 41.717 508.556 41.717C509.455 41.717 510.177 41.4257 510.722 40.843C511.279 40.273 511.558 39.4687 511.558 38.43V37.309C511.216 37.8157 510.753 38.221 510.171 38.525C509.588 38.829 508.948 38.981 508.252 38.981C506.922 38.981 505.813 38.5187 504.927 37.594C504.04 36.6567 503.597 35.504 503.597 34.136C503.597 32.7807 504.04 31.6407 504.927 30.716C505.826 29.7787 506.934 29.31 508.252 29.31C508.948 29.31 509.588 29.462 510.171 29.766C510.753 30.07 511.216 30.469 511.558 30.963V29.5H513.192V38.411C513.192 39.931 512.748 41.1027 511.862 41.926C510.988 42.7493 509.873 43.161 508.518 43.161ZM506.162 36.53C506.757 37.1507 507.53 37.461 508.48 37.461C509.43 37.461 510.202 37.1507 510.798 36.53C511.393 35.8967 511.691 35.0987 511.691 34.136C511.691 33.1733 511.387 32.3817 510.779 31.761C510.183 31.1277 509.417 30.811 508.48 30.811C507.542 30.811 506.77 31.1277 506.162 31.761C505.566 32.3817 505.269 33.1733 505.269 34.136C505.269 35.0987 505.566 35.8967 506.162 36.53ZM515.983 39V29.5H517.617V30.963C518.263 29.861 519.27 29.31 520.638 29.31C521.715 29.31 522.583 29.6583 523.241 30.355C523.9 31.0517 524.229 31.9827 524.229 33.148V39H522.614V33.395C522.614 32.597 522.412 31.97 522.006 31.514C521.601 31.0453 521.056 30.811 520.372 30.811C519.587 30.811 518.928 31.1213 518.396 31.742C517.877 32.3627 517.617 33.2113 517.617 34.288V39H515.983Z" fill="#3C3D3D"/>
</svg>
