<svg width="833" height="100" viewBox="0 0 833 100" fill="none" xmlns="http://www.w3.org/2000/svg">
<path d="M25.9241 71.8855L24.2921 81.368L14.7872 86.7506L24.8171 88.5929L29.438 97.647L31.9192 87.8364L41.511 82.893L30.3534 80.329L25.9241 71.8855Z" fill="#6C56F1"/>
<path d="M766.179 21L764.139 27.3519L757 30.1547L763.818 32.3569L766.179 39L768.842 32.5025L776 30.0091L768.464 27.2063L766.179 21Z" fill="#E6F156"/>
<path d="M813.715 3.69153L807.261 15.0795L792.616 17.5953L804.608 24.5701L806.356 38.2875L814.048 26.8704L828.602 24.9568L815.499 16.5391L813.715 3.69153Z" fill="#3E3B4F"/>
<circle cx="3" cy="55" r="3" fill="#2B3756"/>
<circle cx="825" cy="82" r="3" fill="#D4DF3F"/>
</svg>
