<svg width="52" height="52" viewBox="0 0 52 52" fill="none" xmlns="http://www.w3.org/2000/svg">
<path d="M42.9376 27.8554C42.7333 26.3764 41.989 25.0199 40.8424 24.0368C39.6957 23.0537 38.2244 22.5104 36.7003 22.5075H19.6934C18.7939 22.3644 17.9809 21.899 17.4122 21.2016C16.8435 20.5043 16.5599 19.6248 16.6164 18.7341C16.6552 18.0759 16.8808 17.4413 17.2678 16.9017C17.8018 16.1528 18.6067 15.6309 19.5192 15.4418C20.4317 15.2528 21.3835 15.4108 22.1814 15.8837H22.2161L22.3755 15.9855C25.1107 17.7373 28.3037 18.6798 31.572 18.7002H31.6967C33.9471 18.6954 36.1738 18.2501 38.2458 17.3904C38.4884 17.2886 38.8557 17.1189 39.2854 16.9085C40.5536 16.2841 42.3555 15.3204 42.9931 14.9132V7C41.7984 7.34879 40.6386 7.8031 39.5279 8.35733L37.6567 9.21923C36.2159 9.97104 34.6591 10.4869 33.0481 10.7462C31.4549 10.9103 29.8444 10.779 28.3008 10.3594C27.7542 10.2092 27.2192 10.021 26.6999 9.7961C24.5238 8.85954 22.7774 7.90263 20.2964 7.90263C19.2031 7.90035 18.1152 8.05352 17.0669 8.35733C16.7273 8.45913 16.3738 8.5745 16.062 8.70345C15.1807 9.05335 14.3472 9.5093 13.5809 10.0608C12.1595 11.0892 11.0045 12.43 10.2088 13.9754C9.41318 15.5207 8.99913 17.2274 9 18.9581C8.99952 20.1812 9.20318 21.3962 9.60293 22.555C9.8495 23.2433 10.1628 23.9069 10.5385 24.5367C11.322 25.8643 12.3766 27.0194 13.6364 27.93C13.6355 27.9142 13.6355 27.8983 13.6364 27.8825C14.6041 28.5736 15.6778 29.1096 16.8173 29.4706C17.0114 29.5317 17.2124 29.5928 17.4134 29.6403C18.3498 29.8813 19.3142 30.0022 20.2825 30H42.9445C42.9861 29.5724 43 29.1381 43 28.7037C42.9976 28.4199 42.9767 28.1366 42.9376 27.8554V27.8554Z" fill="#E6F156"/>
<path d="M35.4309 30C35.2299 30.7509 34.9537 31.4814 34.6063 32.181C34.0289 33.3895 33.163 34.4495 32.0792 35.2747C30.9955 36.1 29.7245 36.6671 28.3699 36.93C27.7048 37.067 27.0266 37.1363 26.3465 37.1367C24.6046 37.1479 22.8942 36.6897 21.4087 35.8139C19.9233 34.9381 18.7222 33.6797 17.9411 32.181H10C11.8709 38.9909 18.7449 44 26.4019 44C27.0948 44 27.7046 44 28.3283 43.9133C35.3824 43.2997 39.9628 39.2444 42 33.7018C40.1013 31.5741 37.0247 30.4736 35.4309 30Z" fill="#E6F156"/>
<path d="M42.9336 30H35.4141C35.3798 30.2058 35.0538 31.323 35 31.5C36.6572 31.9136 39.4835 33.0062 41.5 35C41.698 34.5432 42.3254 33.0741 42.4794 32.5926C42.7465 31.7436 42.8544 30.8758 42.9336 30Z" fill="#BAC536"/>
</svg>
