<svg width="303" height="312" viewBox="0 0 303 312" fill="none" xmlns="http://www.w3.org/2000/svg">
<mask id="mask0_748_522" style="mask-type:alpha" maskUnits="userSpaceOnUse" x="0" y="0" width="303" height="312">
<path d="M0 312H302.28V-4.47035e-06H0V312Z" fill="white"/>
</mask>
<g mask="url(#mask0_748_522)">
<path d="M111.077 12.8221C112.989 3.59407 122.02 -2.33664 131.248 -0.424528L265.42 27.3767C274.648 29.2888 280.578 38.3197 278.666 47.5478L222.576 318.247C220.664 327.475 211.633 333.406 202.405 331.494L68.2334 303.692C59.0053 301.78 53.0746 292.749 54.9867 283.521L111.077 12.8221Z" fill="#E8EF94"/>
<path fill-rule="evenodd" clip-rule="evenodd" d="M162.315 12.3735L131.477 5.98364C124.94 4.62922 118.543 8.83016 117.189 15.3667L61.2356 285.404C59.8812 291.94 64.0821 298.337 70.6187 299.692L202.487 327.016C209.024 328.37 215.42 324.169 216.775 317.633L272.728 47.5955C274.083 41.059 269.882 34.6621 263.345 33.3077L236.96 27.8406C236.254 28.5018 235.75 29.2542 235.575 30.1012C234.665 34.4941 231.226 36.6451 223.765 35.0992L197.939 29.7478L171.54 24.2779C164.079 22.732 161.778 19.3918 162.688 14.9989C162.864 14.1518 162.701 13.2612 162.315 12.3735Z" fill="#DDE664"/>
<g filter="url(#filter0_d_748_522)">
<path d="M41.5902 37.3509C41.5902 27.9268 49.2299 20.2871 58.654 20.2871H198.008C207.432 20.2871 215.072 27.9268 215.072 37.3509V318.192C215.072 327.616 207.432 335.256 198.008 335.256H58.654C49.2299 335.256 41.5902 327.616 41.5902 318.192V37.3509Z" fill="#FAF7EF"/>
</g>
<path fill-rule="evenodd" clip-rule="evenodd" d="M92.269 26.3184C92.8358 27.122 93.1817 27.9744 93.1817 28.8533C93.1817 33.4116 96.1593 36.2605 103.901 36.2605H130.7H131.294H158.093C165.835 36.2605 168.812 33.4116 168.812 28.8533C168.812 27.9744 169.158 27.122 169.725 26.3184H197.296C203.972 26.3184 209.383 31.7298 209.383 38.4052V318.996C209.383 325.672 203.972 331.083 197.296 331.083H60.0751C53.3997 331.083 47.9883 325.672 47.9883 318.996V38.4052C47.9883 31.7298 53.3997 26.3184 60.0751 26.3184H92.269Z" fill="#F2EFE5"/>
<g opacity="0.7" filter="url(#filter1_i_748_522)">
<path d="M131.885 72.899C131.885 68.5797 135.387 65.0781 139.706 65.0781H175.255C179.575 65.0781 183.076 68.5797 183.076 72.899V108.449C183.076 112.768 179.575 116.269 175.255 116.269H139.706C135.387 116.269 131.885 112.768 131.885 108.449V72.899Z" fill="#E7E4E1"/>
</g>
<path opacity="0.7" d="M131.885 133.335C131.885 129.015 135.387 125.514 139.706 125.514H175.255C179.575 125.514 183.076 129.015 183.076 133.335V168.884C183.076 173.203 179.575 176.705 175.255 176.705H139.706C135.387 176.705 131.885 173.203 131.885 168.884V133.335Z" fill="#E7E4E1"/>
<path opacity="0.7" d="M71.4515 133.335C71.4515 129.015 74.9531 125.514 79.2724 125.514H114.822C119.141 125.514 122.643 129.015 122.643 133.335V168.884C122.643 173.203 119.141 176.705 114.822 176.705H79.2724C74.9531 176.705 71.4515 173.203 71.4515 168.884V133.335Z" fill="#E7E4E1"/>
<path opacity="0.5" d="M89.0277 319.054C89.0277 319.054 89.7429 300.271 103.44 300.271H122.814C127.907 300.271 132.198 296.254 132.263 291.151C132.263 291.064 132.263 290.977 132.263 290.89C132.263 282.052 123.659 282.052 123.659 282.052H91.1732C90.7615 282.052 90.3497 282.031 89.9596 281.966C86.1887 281.401 68.3094 277.796 68.3094 260.034C68.3094 240.187 85.6036 238.905 93.5355 238.905H141.279C141.279 238.905 149.926 239.622 149.926 230.61C149.926 221.599 141.994 222.315 140.563 222.315H68.9163C68.4178 222.315 67.9193 222.272 67.4426 222.185C57.6686 220.252 59.0556 205.856 69.0029 205.856H169.734C169.734 205.856 196.585 205.682 196.585 224.986C196.585 244.291 181.458 249.35 173.353 249.35H118.762C118.762 249.35 106.149 248.634 106.149 259.1C106.149 269.567 117.136 268.85 119.672 268.85H148.669C148.669 268.85 173.721 267.59 173.721 289.978C173.721 312.366 152.288 311.454 147.238 311.454C142.904 311.454 128.275 310.933 124.158 317.708C122.727 320.097 120.344 321.747 117.548 321.747H88.681L89.0494 319.033L89.0277 319.054Z" fill="url(#paint0_linear_748_522)"/>
<g clip-path="url(#clip0_748_522)">
<path d="M98.4957 276.895C78.9742 276.794 62.8223 292.361 60.7896 312.389L78.45 312.48L135.846 312.777C134.021 292.716 118.031 276.996 98.5093 276.895L98.4957 276.895Z" fill="#3357D6"/>
<path d="M90.5182 240.104C83.8389 241.945 79.2459 247.622 78.4523 254.098L108.05 245.938C104.051 240.784 97.1974 238.262 90.5182 240.104Z" fill="#325BE9"/>
<path d="M78.4534 254.096C78.2006 256.194 78.3353 258.37 78.931 260.531C81.3681 269.371 90.5069 274.56 99.347 272.123C108.187 269.685 113.376 260.547 110.939 251.707C110.343 249.546 109.344 247.609 108.051 245.936L78.4534 254.096Z" fill="#FFA3A3"/>
<path d="M104.159 253.799C104.159 255.37 102.886 256.643 101.315 256.643C99.7445 256.643 98.4713 255.37 98.4713 253.799C98.4713 252.228 99.7445 250.955 101.315 250.955C102.886 250.955 104.159 252.228 104.159 253.799Z" fill="#2B3756"/>
</g>
<path d="M77.4592 200.75C77.231 199.55 78.0566 198.403 79.2678 198.239L84.5491 197.522C85.753 197.359 86.85 198.232 86.9601 199.442L88.7632 219.256C88.8666 220.393 88.0568 221.41 86.9258 221.563L83.5579 222.02C82.434 222.173 81.3874 221.419 81.1756 220.305L77.4592 200.75Z" fill="#3C3D3D"/>
<path d="M82.4404 228.168C82.1696 226.172 83.5679 224.335 85.5635 224.064C87.5591 223.794 89.3964 225.192 89.6673 227.187C89.9381 229.183 88.5398 231.02 86.5442 231.291C84.5485 231.562 82.7112 230.164 82.4404 228.168Z" fill="#3C3D3D"/>
<path fill-rule="evenodd" clip-rule="evenodd" d="M142.551 195.191C129.593 195.191 119.089 205.696 119.089 218.654C119.089 231.612 129.593 242.117 142.551 242.117H223.604C236.562 242.117 247.067 231.612 247.067 218.654C247.067 205.696 236.562 195.191 223.604 195.191H142.551ZM147.529 242.117C153.572 242.117 159.26 246.312 159.26 253.137C159.276 253.011 159.291 252.881 159.306 252.748C159.774 248.775 160.557 242.117 172.769 242.117H147.529Z" fill="#8E95D6"/>
<path fill-rule="evenodd" clip-rule="evenodd" d="M35.9284 155.428C28.5233 156.337 23.2575 163.077 24.1668 170.482C25.0761 177.887 31.8163 183.153 39.2214 182.244L66.8316 178.854C72.8017 178.162 78.9018 181.631 79.7296 188.372C79.7294 188.245 79.7287 188.115 79.728 187.981C79.7077 183.996 79.6736 177.329 91.6522 175.806L95.6765 175.311C103.082 174.402 108.347 167.662 107.438 160.257C106.529 152.852 99.7886 147.586 92.3835 148.495L35.9284 155.428Z" fill="#3C3D3D"/>
<path d="M71.4534 73.61C71.4534 68.898 75.2733 65.0781 79.9853 65.0781H114.113C118.825 65.0781 122.645 68.898 122.645 73.61V107.738C122.645 112.45 118.825 116.269 114.113 116.269H79.9853C75.2733 116.269 71.4534 112.45 71.4534 107.738V73.61Z" fill="#325BE9"/>
<mask id="mask1_748_522" style="mask-type:alpha" maskUnits="userSpaceOnUse" x="66" y="101" width="61" height="21">
<path fill-rule="evenodd" clip-rule="evenodd" d="M88.1733 119.458C86.2033 119.458 84.4928 118.347 83.6348 116.717H70.8872V112.018C68.3954 111.67 66.4777 109.53 66.4777 106.942C66.4777 104.112 68.7725 101.817 71.6033 101.817C73.0118 101.817 74.2877 102.385 75.2141 103.305C76.5143 102.086 78.2627 101.34 80.1853 101.34C84.2011 101.34 87.4565 104.595 87.4565 108.611C87.4565 108.83 87.4468 109.047 87.4278 109.261C87.6712 109.225 87.9201 109.207 88.1733 109.207C91.0041 109.207 93.2989 111.502 93.2989 114.333C93.2989 117.163 91.0041 119.458 88.1733 119.458ZM117.417 116.717C116.207 117.615 114.709 118.147 113.086 118.147C112.045 118.147 111.055 117.928 110.159 117.534C109.768 119.976 107.651 121.842 105.099 121.842C102.268 121.842 99.9729 119.547 99.9729 116.717C99.9729 113.886 102.268 111.591 105.099 111.591C105.355 111.591 105.608 111.61 105.855 111.646C105.828 111.393 105.814 111.136 105.814 110.876C105.814 106.86 109.07 103.605 113.086 103.605C114.951 103.605 116.652 104.307 117.939 105.462C118.879 104.396 120.254 103.724 121.786 103.724C124.617 103.724 126.911 106.018 126.911 108.849C126.911 111.6 124.744 113.845 122.024 113.969V116.717H117.417Z" fill="#849FFF"/>
</mask>
<g mask="url(#mask1_748_522)">
<path d="M71.4534 102.051C71.4534 97.3394 75.2733 93.5195 79.9853 93.5195H114.113C118.825 93.5195 122.645 97.3394 122.645 102.051V107.739C122.645 112.451 118.825 116.271 114.113 116.271H79.9853C75.2733 116.271 71.4534 112.451 71.4534 107.739V102.051Z" fill="#849FFF"/>
</g>
<path d="M97.049 94.2285L102.026 116.269H92.072L97.049 94.2285Z" fill="#849FFF"/>
<path d="M105.217 75.0314C98.2364 75.0314 97.4041 79.3984 97.4041 79.3984C97.4041 79.3984 96.5717 75.0581 89.591 75.0314C83.201 75.0314 80.2208 80.3093 80.7578 84.596C82.0197 94.6698 91.0946 101.019 95.6857 103.109C96.7865 103.591 98.0484 103.591 99.1224 103.109C103.714 101.046 112.788 94.9377 114.05 84.596C114.587 80.3093 111.661 75.0046 105.217 75.0314Z" fill="#446CF4"/>
<path opacity="0.7" d="M101.561 81.4297C97.8474 81.4297 97.4047 83.8316 97.4047 83.8316C97.4047 83.8316 96.962 81.4445 93.2489 81.4297C89.8499 81.4297 88.2647 84.3326 88.5503 86.6903C89.2215 92.2309 94.0486 95.7232 96.4907 96.8726C97.0762 97.1378 97.7475 97.1378 98.3187 96.8726C100.761 95.7379 105.588 92.3782 106.259 86.6903C106.545 84.3326 104.988 81.415 101.561 81.4297Z" fill="#98AFFF"/>
<path opacity="0.3" d="M157.481 218.653C157.481 224.936 152.388 230.029 146.105 230.029C139.822 230.029 134.729 224.936 134.729 218.653C134.729 212.37 139.822 207.277 146.105 207.277C152.388 207.277 157.481 212.37 157.481 218.653Z" fill="#B4BAF1"/>
<path d="M54.5539 167.109C54.7214 168.474 53.7513 169.715 52.3872 169.883C51.0231 170.05 49.7815 169.08 49.614 167.716C49.4465 166.352 50.4165 165.11 51.7806 164.943C53.1447 164.775 54.3863 165.745 54.5539 167.109Z" fill="#5C6886"/>
<path d="M63.7279 165.984C63.8954 167.349 62.9253 168.59 61.5612 168.758C60.1972 168.925 58.9555 167.955 58.788 166.591C58.6205 165.227 59.5906 163.985 60.9547 163.818C62.3187 163.65 63.5604 164.62 63.7279 165.984Z" fill="#5C6886"/>
<path d="M72.9022 164.856C73.0697 166.22 72.0997 167.461 70.7356 167.629C69.3715 167.796 68.1299 166.826 67.9624 165.462C67.7948 164.098 68.7649 162.856 70.129 162.689C71.4931 162.521 72.7347 163.491 72.9022 164.856Z" fill="#5C6886"/>
<path d="M82.0762 163.731C82.2437 165.095 81.2737 166.336 79.9096 166.504C78.5455 166.671 77.3039 165.701 77.1364 164.337C76.9689 162.973 77.9389 161.731 79.303 161.564C80.6671 161.396 81.9087 162.366 82.0762 163.731Z" fill="#5C6886"/>
<g opacity="0.3">
<path d="M168.857 210.121C168.857 209.728 169.175 209.41 169.568 209.41H225.025C225.417 209.41 225.736 209.728 225.736 210.121V210.832C225.736 211.225 225.417 211.543 225.025 211.543H169.568C169.175 211.543 168.857 211.225 168.857 210.832V210.121Z" fill="#B4BAF1"/>
<path d="M168.857 215.809C168.857 215.416 169.175 215.098 169.568 215.098H195.874C196.267 215.098 196.585 215.416 196.585 215.809V216.52C196.585 216.912 196.267 217.231 195.874 217.231H169.568C169.175 217.231 168.857 216.912 168.857 216.52V215.809Z" fill="#B4BAF1"/>
<path d="M168.857 221.496C168.857 221.103 169.175 220.785 169.568 220.785H217.915C218.308 220.785 218.626 221.103 218.626 221.496V222.207C218.626 222.6 218.308 222.918 217.915 222.918H169.568C169.175 222.918 168.857 222.6 168.857 222.207V221.496Z" fill="#B4BAF1"/>
<path d="M168.857 227.186C168.857 226.793 169.175 226.475 169.568 226.475H207.961C208.354 226.475 208.672 226.793 208.672 227.186V227.897C208.672 228.289 208.354 228.608 207.961 228.608H169.568C169.175 228.608 168.857 228.289 168.857 227.897V227.186Z" fill="#B4BAF1"/>
</g>
<path d="M138.284 176.705C134.75 176.705 131.885 173.84 131.885 170.306L131.885 71.4784C131.885 67.9444 134.75 65.0795 138.284 65.0795L176.677 65.0795C180.211 65.0795 183.076 67.9444 183.076 71.4784L183.076 170.306C183.076 173.84 180.211 176.705 176.677 176.705L138.284 176.705Z" fill="#DBE654"/>
<path d="M148.595 168.883C147.613 168.883 146.818 168.087 146.818 167.105L146.818 75.3875C146.818 74.4058 147.613 73.61 148.595 73.61C149.577 73.61 150.372 74.4058 150.372 75.3875L150.372 167.105C150.372 168.087 149.577 168.883 148.595 168.883Z" fill="#E6F156"/>
<path d="M165.657 168.883C164.676 168.883 163.88 168.087 163.88 167.105L163.88 75.3875C163.88 74.4058 164.676 73.61 165.657 73.61C166.639 73.61 167.435 74.4058 167.435 75.3875L167.435 167.105C167.435 168.087 166.639 168.883 165.657 168.883Z" fill="#E6F156"/>
<path d="M165.657 168.883C164.676 168.883 163.88 168.087 163.88 167.105L163.88 116.625C163.88 115.643 164.676 114.847 165.657 114.847C166.639 114.847 167.435 115.643 167.435 116.625L167.435 167.105C167.435 168.087 166.639 168.883 165.657 168.883Z" fill="#B9C435"/>
<path d="M148.595 168.883C147.613 168.883 146.818 168.087 146.818 167.105L146.818 146.487C146.818 145.505 147.613 144.709 148.595 144.709C149.577 144.709 150.372 145.505 150.372 146.487L150.372 167.105C150.372 168.087 149.577 168.883 148.595 168.883Z" fill="#B9C435"/>
<path d="M148.594 141.156C150.361 141.156 151.793 142.588 151.793 144.355C151.793 146.122 150.361 147.555 148.594 147.555C146.827 147.555 145.394 146.122 145.394 144.355C145.394 142.588 146.827 141.156 148.594 141.156Z" fill="#FDFFDE"/>
<path d="M165.658 113.427C167.425 113.427 168.858 114.86 168.858 116.627C168.858 118.394 167.425 119.826 165.658 119.826C163.891 119.826 162.459 118.394 162.459 116.627C162.459 114.86 163.891 113.427 165.658 113.427Z" fill="#FDFFDE"/>
<path d="M16.245 78.3052L15.0846 85.0472L8.32677 88.8741L15.4579 90.184L18.7434 96.6213L20.5074 89.6461L27.3272 86.1314L19.3942 84.3084L16.245 78.3052Z" fill="#B9C335"/>
<path opacity="0.5" d="M244.391 151.575L241.947 154.658L237.61 154.734L240.693 157.351L240.484 161.498L243.285 158.464L247.565 158.562L244.237 155.467L244.391 151.575Z" fill="#3C3D3D"/>
<path d="M234.268 134.756C234.268 136.327 232.995 137.6 231.424 137.6C229.853 137.6 228.58 136.327 228.58 134.756C228.58 133.185 229.853 131.912 231.424 131.912C232.995 131.912 234.268 133.185 234.268 134.756Z" fill="#325BE9"/>
<path opacity="0.8" d="M251.331 121.385C251.331 122.563 250.376 123.518 249.198 123.518C248.02 123.518 247.065 122.563 247.065 121.385C247.065 120.207 248.02 119.252 249.198 119.252C250.376 119.252 251.331 120.207 251.331 121.385Z" fill="white"/>
<path opacity="0.7" d="M3.9261 71.8381C3.9261 73.0161 2.97113 73.971 1.79313 73.971C0.615119 73.971 -0.339844 73.0161 -0.339844 71.8381C-0.339844 70.66 0.615119 69.7051 1.79313 69.7051C2.97113 69.7051 3.9261 70.66 3.9261 71.8381Z" fill="white"/>
<g opacity="0.3" filter="url(#filter2_f_748_522)">
<path d="M220.635 314.43C220.635 320.603 179.513 325.607 128.785 325.607C78.0574 325.607 36.9346 320.603 36.9346 314.43C36.9346 308.256 78.0574 303.252 128.785 303.252C179.513 303.252 220.635 308.256 220.635 314.43Z" fill="#787E22"/>
</g>
</g>
<defs>
<filter id="filter0_d_748_522" x="11.5987" y="-6.77838" width="233.464" height="374.952" filterUnits="userSpaceOnUse" color-interpolation-filters="sRGB">
<feFlood flood-opacity="0" result="BackgroundImageFix"/>
<feColorMatrix in="SourceAlpha" type="matrix" values="0 0 0 0 0 0 0 0 0 0 0 0 0 0 0 0 0 0 127 0" result="hardAlpha"/>
<feOffset dy="2.926"/>
<feGaussianBlur stdDeviation="14.9957"/>
<feComposite in2="hardAlpha" operator="out"/>
<feColorMatrix type="matrix" values="0 0 0 0 0 0 0 0 0 0 0 0 0 0 0 0 0 0 0.11 0"/>
<feBlend mode="normal" in2="BackgroundImageFix" result="effect1_dropShadow_748_522"/>
<feBlend mode="normal" in="SourceGraphic" in2="effect1_dropShadow_748_522" result="shape"/>
</filter>
<filter id="filter1_i_748_522" x="131.885" y="63.6151" width="53.3858" height="52.6544" filterUnits="userSpaceOnUse" color-interpolation-filters="sRGB">
<feFlood flood-opacity="0" result="BackgroundImageFix"/>
<feBlend mode="normal" in="SourceGraphic" in2="BackgroundImageFix" result="shape"/>
<feColorMatrix in="SourceAlpha" type="matrix" values="0 0 0 0 0 0 0 0 0 0 0 0 0 0 0 0 0 0 127 0" result="hardAlpha"/>
<feOffset dx="2.1945" dy="-1.463"/>
<feGaussianBlur stdDeviation="2.1945"/>
<feComposite in2="hardAlpha" operator="arithmetic" k2="-1" k3="1"/>
<feColorMatrix type="matrix" values="0 0 0 0 0.416667 0 0 0 0 0.416667 0 0 0 0 0.416667 0 0 0 0.25 0"/>
<feBlend mode="normal" in2="shape" result="effect1_innerShadow_748_522"/>
</filter>
<filter id="filter2_f_748_522" x="-1.06543" y="265.252" width="259.701" height="98.3555" filterUnits="userSpaceOnUse" color-interpolation-filters="sRGB">
<feFlood flood-opacity="0" result="BackgroundImageFix"/>
<feBlend mode="normal" in="SourceGraphic" in2="BackgroundImageFix" result="shape"/>
<feGaussianBlur stdDeviation="19" result="effect1_foregroundBlur_748_522"/>
</filter>
<linearGradient id="paint0_linear_748_522" x1="128.686" y1="205.855" x2="128.686" y2="321.747" gradientUnits="userSpaceOnUse">
<stop stop-color="#AAA2CD" stop-opacity="0"/>
<stop offset="1" stop-color="#A2B3CD"/>
</linearGradient>
<clipPath id="clip0_748_522">
<rect width="75.0575" height="73.5225" fill="white" transform="translate(61.1684 238.867) rotate(0.29639)"/>
</clipPath>
</defs>
</svg>
