<svg width="282" height="275" viewBox="0 0 282 275" fill="none" xmlns="http://www.w3.org/2000/svg">
<path opacity="0.89" d="M263.078 130.971C262.521 127.705 259.422 125.508 256.155 126.065L74.7686 156.982C71.502 157.539 69.3053 160.638 69.8621 163.905L87.729 268.727C88.2858 271.993 91.3852 274.19 94.6518 273.633L276.038 242.716C279.305 242.159 281.502 239.06 280.945 235.793L263.078 130.971Z" fill="#545454"/>
<path d="M145.106 83.7825C146.127 81.2167 144.874 78.3092 142.308 77.2884L33.1067 33.8437C30.5409 32.8229 27.6333 34.0754 26.6126 36.6413L1.84832 98.8881C0.827533 101.454 2.08004 104.361 4.64586 105.382L113.848 148.827C116.413 149.848 119.321 148.595 120.342 146.029L145.106 83.7825Z" fill="#454646"/>
<path opacity="0.5" d="M263.078 130.971C262.521 127.705 259.422 125.508 256.155 126.065L74.7686 156.982C71.502 157.539 69.3053 160.638 69.8621 163.905L71.4266 173.084L264.643 140.15L263.078 130.971Z" fill="#DADCE2"/>
<path opacity="0.1" d="M145.106 83.7826C146.127 81.2167 144.874 78.3092 142.308 77.2884L33.1067 33.8437C30.5409 32.8229 27.6333 34.0754 26.6126 36.6413L24.4509 42.0747L142.944 89.216L145.106 83.7826Z" fill="#BBBDC4"/>
<path d="M80.9214 163.945C81.0972 164.94 80.433 165.889 79.4378 166.065C78.4425 166.241 77.4932 165.577 77.3174 164.581C77.1416 163.586 77.8058 162.637 78.801 162.461C79.7962 162.285 80.7455 162.949 80.9214 163.945Z" fill="#EA6A5E"/>
<path d="M86.9281 162.884C87.1039 163.879 86.4397 164.829 85.4445 165.004C84.4493 165.18 83.4999 164.516 83.3241 163.521C83.1483 162.526 83.8125 161.576 84.8077 161.4C85.8029 161.225 86.7523 161.889 86.9281 162.884Z" fill="#F3BE4F"/>
<path d="M92.9342 161.821C93.11 162.817 92.4458 163.766 91.4506 163.942C90.4554 164.118 89.506 163.453 89.3302 162.458C89.1544 161.463 89.8186 160.514 90.8138 160.338C91.809 160.162 92.7584 160.826 92.9342 161.821Z" fill="#65C454"/>
<path opacity="0.6" fill-rule="evenodd" clip-rule="evenodd" d="M91.2635 185.115L91.0742 184.125L92.0564 183.937L92.2457 184.928L91.2635 185.115ZM95.9597 183.191L94.0055 183.565L94.1933 184.547L96.1475 184.174L95.9597 183.191ZM106.442 259.21L106.253 258.22L105.271 258.407L105.46 259.398L106.442 259.21ZM178.737 245.393L179.72 245.206L179.53 244.215L178.548 244.403L178.737 245.393ZM164.352 170.121L164.541 171.111L165.523 170.923L165.334 169.933L164.352 170.121ZM97.9139 182.818L98.1017 183.8L100.056 183.427L99.8682 182.444L97.9139 182.818ZM101.822 182.071L102.01 183.053L103.964 182.68L103.777 181.697L101.822 182.071ZM105.731 181.324L105.918 182.306L107.873 181.933L107.685 180.95L105.731 181.324ZM109.639 180.577L109.827 181.559L111.781 181.186L111.593 180.204L109.639 180.577ZM113.548 179.83L113.735 180.812L115.689 180.439L115.502 179.457L113.548 179.83ZM117.456 179.083L117.644 180.065L119.598 179.692L119.41 178.71L117.456 179.083ZM121.364 178.336L121.552 179.318L123.506 178.945L123.319 177.963L121.364 178.336ZM125.273 177.589L125.461 178.571L127.415 178.198L127.227 177.216L125.273 177.589ZM129.181 176.842L129.369 177.824L131.323 177.451L131.135 176.469L129.181 176.842ZM133.09 176.095L133.277 177.077L135.232 176.704L135.044 175.722L133.09 176.095ZM136.998 175.348L137.186 176.331L139.14 175.957L138.952 174.975L136.998 175.348ZM140.906 174.601L141.094 175.584L143.048 175.21L142.861 174.228L140.906 174.601ZM144.815 173.854L145.003 174.837L146.957 174.463L146.769 173.481L144.815 173.854ZM148.723 173.107L148.911 174.09L150.865 173.716L150.677 172.734L148.723 173.107ZM152.632 172.361L152.819 173.343L154.774 172.969L154.586 171.987L152.632 172.361ZM156.54 171.614L156.728 172.596L158.682 172.222L158.494 171.24L156.54 171.614ZM160.448 170.867L160.636 171.849L162.59 171.475L162.403 170.493L160.448 170.867ZM165.902 172.904L164.92 173.092L165.298 175.073L166.28 174.885L165.902 172.904ZM166.659 176.866L165.677 177.054L166.055 179.035L167.038 178.847L166.659 176.866ZM167.416 180.828L166.434 181.015L166.812 182.996L167.795 182.809L167.416 180.828ZM168.173 184.789L167.191 184.977L167.57 186.958L168.552 186.77L168.173 184.789ZM168.93 188.751L167.948 188.939L168.327 190.92L169.309 190.732L168.93 188.751ZM169.688 192.713L168.705 192.901L169.084 194.881L170.066 194.694L169.688 192.713ZM170.445 196.675L169.462 196.862L169.841 198.843L170.823 198.655L170.445 196.675ZM171.202 200.636L170.22 200.824L170.598 202.805L171.58 202.617L171.202 200.636ZM171.959 204.598L170.977 204.786L171.355 206.767L172.338 206.579L171.959 204.598ZM172.716 208.56L171.734 208.747L172.112 210.728L173.095 210.541L172.716 208.56ZM173.473 212.521L172.491 212.709L172.87 214.69L173.852 214.502L173.473 212.521ZM174.23 216.483L173.248 216.671L173.627 218.652L174.609 218.464L174.23 216.483ZM174.988 220.445L174.005 220.633L174.384 222.613L175.366 222.426L174.988 220.445ZM175.745 224.407L174.762 224.594L175.141 226.575L176.123 226.388L175.745 224.407ZM176.502 228.368L175.52 228.556L175.898 230.537L176.88 230.349L176.502 228.368ZM177.259 232.33L176.277 232.518L176.655 234.499L177.638 234.311L177.259 232.33ZM178.016 236.292L177.034 236.48L177.412 238.46L178.395 238.273L178.016 236.292ZM178.773 240.254L177.791 240.441L178.17 242.422L179.152 242.234L178.773 240.254ZM176.788 245.766L176.601 244.784L174.646 245.157L174.834 246.139L176.788 245.766ZM172.88 246.513L172.692 245.531L170.738 245.904L170.926 246.886L172.88 246.513ZM168.972 247.26L168.784 246.278L166.83 246.651L167.017 247.633L168.972 247.26ZM165.063 248.007L164.875 247.025L162.921 247.398L163.109 248.38L165.063 248.007ZM161.155 248.754L160.967 247.772L159.013 248.145L159.201 249.127L161.155 248.754ZM157.246 249.501L157.059 248.518L155.104 248.892L155.292 249.874L157.246 249.501ZM153.338 250.248L153.15 249.265L151.196 249.639L151.384 250.621L153.338 250.248ZM149.429 250.995L149.242 250.012L147.288 250.386L147.475 251.368L149.429 250.995ZM145.521 251.742L145.333 250.759L143.379 251.133L143.567 252.115L145.521 251.742ZM141.613 252.488L141.425 251.506L139.471 251.88L139.658 252.862L141.613 252.488ZM137.704 253.235L137.517 252.253L135.562 252.627L135.75 253.609L137.704 253.235ZM133.796 253.982L133.608 253L131.654 253.374L131.842 254.356L133.796 253.982ZM129.887 254.729L129.7 253.747L127.746 254.121L127.933 255.103L129.887 254.729ZM125.979 255.476L125.791 254.494L123.837 254.868L124.025 255.85L125.979 255.476ZM122.071 256.223L121.883 255.241L119.929 255.614L120.116 256.597L122.071 256.223ZM118.162 256.97L117.975 255.988L116.02 256.361L116.208 257.344L118.162 256.97ZM114.254 257.717L114.066 256.735L112.112 257.108L112.3 258.091L114.254 257.717ZM110.345 258.464L110.158 257.482L108.204 257.855L108.391 258.838L110.345 258.464ZM104.892 256.426L105.874 256.239L105.496 254.258L104.513 254.446L104.892 256.426ZM104.135 252.465L105.117 252.277L104.739 250.296L103.756 250.484L104.135 252.465ZM103.378 248.503L104.36 248.315L103.981 246.334L102.999 246.522L103.378 248.503ZM102.621 244.541L103.603 244.354L103.224 242.373L102.242 242.56L102.621 244.541ZM101.863 240.58L102.846 240.392L102.467 238.411L101.485 238.599L101.863 240.58ZM101.106 236.618L102.089 236.43L101.71 234.449L100.728 234.637L101.106 236.618ZM100.349 232.656L101.331 232.468L100.953 230.488L99.9706 230.675L100.349 232.656ZM99.5921 228.694L100.574 228.507L100.196 226.526L99.2135 226.714L99.5921 228.694ZM98.8349 224.733L99.8171 224.545L99.4386 222.564L98.4564 222.752L98.8349 224.733ZM98.0778 220.771L99.06 220.583L98.6814 218.602L97.6992 218.79L98.0778 220.771ZM97.3206 216.809L98.3029 216.622L97.9243 214.641L96.9421 214.828L97.3206 216.809ZM96.5635 212.848L97.5457 212.66L97.1672 210.679L96.1849 210.867L96.5635 212.848ZM95.8064 208.886L96.7886 208.698L96.41 206.717L95.4278 206.905L95.8064 208.886ZM95.0492 204.924L96.0314 204.736L95.6529 202.755L94.6706 202.943L95.0492 204.924ZM94.2921 200.962L95.2743 200.775L94.8957 198.794L93.9135 198.981L94.2921 200.962ZM93.5349 197.001L94.5172 196.813L94.1386 194.832L93.1564 195.02L93.5349 197.001ZM92.7778 193.039L93.76 192.851L93.3814 190.87L92.3992 191.058L92.7778 193.039ZM92.0206 189.077L93.0029 188.889L92.6243 186.909L91.6421 187.096L92.0206 189.077Z" fill="#717171"/>
<path opacity="0.4" fill-rule="evenodd" clip-rule="evenodd" d="M86.1216 180.762L94.8417 179.095L95.1233 180.569L87.8765 181.953L89.2615 189.2L87.7881 189.482L86.1216 180.762Z" fill="#959699"/>
<path opacity="0.4" fill-rule="evenodd" clip-rule="evenodd" d="M102.097 264.348L110.817 262.681L110.535 261.208L103.288 262.593L101.903 255.346L100.43 255.628L102.097 264.348Z" fill="#959699"/>
<path opacity="0.4" fill-rule="evenodd" clip-rule="evenodd" d="M168.578 165.145L170.244 173.865L168.771 174.146L167.386 166.899L160.139 168.284L159.858 166.811L168.578 165.145Z" fill="#959699"/>
<path opacity="0.4" fill-rule="evenodd" clip-rule="evenodd" d="M184.553 248.734L182.886 240.014L181.413 240.296L182.798 247.543L175.551 248.928L175.833 250.401L184.553 248.734Z" fill="#959699"/>
</svg>
